<?xml version="1.0" standalone="no"?>
<!DOCTYPE svg PUBLIC "-//W3C//DTD SVG 20010904//EN"
 "http://www.w3.org/TR/2001/REC-SVG-20010904/DTD/svg10.dtd">
<svg version="1.0" xmlns="http://www.w3.org/2000/svg"
 width="500.000000pt" height="500.000000pt" viewBox="0 0 500.000000 500.000000"
 preserveAspectRatio="xMidYMid meet">

<g transform="translate(0.000000,500.000000) scale(0.100000,-0.100000)"
fill="#000000" stroke="none">
<path d="M2376 4621 c-12 -18 105 -100 300 -212 65 -37 78 -54 34 -43 -19 5
-84 9 -145 9 -109 0 -110 0 -194 43 -47 23 -91 42 -97 42 -7 0 -28 14 -46 31
-18 17 -46 37 -63 44 -38 16 -125 29 -125 18 1 -20 18 -31 60 -38 55 -9 88
-25 119 -59 23 -24 23 -26 5 -26 -10 0 -34 4 -52 9 -36 11 -41 2 -13 -23 15
-13 36 -16 110 -15 81 2 95 0 119 -19 54 -43 77 -52 113 -42 45 13 138 13 215
-1 63 -11 64 -12 132 -92 108 -130 192 -233 192 -238 0 -2 -16 -13 -35 -23
-29 -16 -40 -17 -79 -7 -52 13 -139 15 -116 2 8 -4 45 -16 82 -25 50 -14 71
-25 84 -44 46 -71 174 -186 239 -216 43 -19 115 -73 115 -86 0 -4 -15 -10 -32
-14 -55 -11 -211 -92 -245 -128 -23 -24 -36 -49 -43 -88 -13 -67 -34 -100 -64
-100 -15 0 -27 -9 -34 -25 -9 -20 -19 -25 -46 -25 -19 0 -36 5 -38 11 -2 7
-33 -4 -78 -27 -41 -21 -78 -40 -81 -42 -4 -1 -9 6 -12 18 -3 13 0 20 9 20 8
0 14 10 14 25 0 21 -5 25 -27 25 -33 0 -75 20 -81 38 -2 7 5 12 16 12 11 0 33
7 48 15 18 9 57 15 104 15 87 0 129 8 108 21 -9 6 -5 9 13 9 15 0 32 6 38 14
10 12 8 18 -12 31 -36 23 -76 33 -176 40 -69 6 -94 12 -107 26 -27 29 -41 23
-48 -22 -8 -48 -1 -60 18 -34 12 17 20 18 132 6 66 -7 122 -16 126 -19 4 -4
-45 -4 -108 0 -85 6 -122 4 -138 -5 -18 -10 -5 -13 86 -17 66 -3 112 -10 120
-17 10 -10 -8 -13 -89 -13 -57 0 -105 -4 -108 -10 -3 -5 -17 -10 -31 -10 -18
0 -24 -5 -22 -17 3 -15 -6 -18 -59 -21 l-62 -3 -20 39 -20 40 32 6 c28 5 32
10 31 34 -1 23 -5 27 -30 27 -19 0 -30 6 -32 18 -2 10 3 17 13 17 8 0 27 7 41
16 22 15 24 15 18 0 -7 -19 0 -20 28 -5 18 10 20 9 16 -9 -3 -11 -2 -26 2 -33
6 -8 13 0 25 27 16 39 16 39 -9 61 -34 29 -87 43 -162 43 l-60 0 -27 -57 c-43
-93 -44 -138 -8 -221 17 -39 31 -76 31 -84 0 -7 -13 -28 -29 -46 -16 -17 -25
-34 -20 -37 20 -13 7 -24 -22 -18 -30 6 -30 6 -24 -29 8 -43 -11 -61 -20 -19
-5 23 -13 30 -40 35 -19 4 -58 23 -87 42 -38 26 -57 33 -68 26 -17 -10 -25
-45 -15 -70 5 -15 9 -13 25 8 19 25 19 25 49 7 16 -9 33 -17 38 -16 4 1 15 -1
23 -4 8 -3 24 -7 35 -10 11 -2 19 -9 17 -16 -2 -8 5 -22 14 -32 16 -18 16 -19
-19 -19 -23 0 -46 -8 -64 -24 -22 -18 -33 -22 -46 -15 -21 12 -23 31 -2 23 8
-4 15 -1 15 6 0 6 5 8 11 4 17 -10 59 17 59 38 0 20 -23 32 -85 42 l-40 7 25
-20 c22 -17 23 -21 8 -26 -44 -17 -161 81 -208 175 l-13 25 25 -22 c13 -13 28
-23 32 -23 19 0 -91 185 -142 238 -32 33 -70 74 -86 93 -18 22 -31 29 -33 21
-3 -7 12 -31 32 -53 44 -49 40 -61 -9 -24 -20 15 -54 29 -78 32 -24 3 -48 11
-54 19 -7 9 -35 13 -90 13 -43 0 -150 0 -237 0 -117 0 -157 -3 -154 -12 2 -7
23 -13 48 -14 24 -1 95 -8 157 -14 85 -9 119 -9 140 0 23 10 43 9 96 -3 37 -9
82 -16 99 -16 37 0 77 -24 77 -45 0 -18 -31 -35 -62 -35 -13 0 -60 -15 -105
-34 -45 -19 -135 -51 -200 -71 -65 -20 -145 -50 -178 -66 -33 -16 -92 -38
-132 -49 -39 -11 -94 -36 -122 -55 -32 -22 -83 -44 -138 -59 -98 -26 -249 -88
-272 -111 -28 -27 19 -18 98 20 40 19 81 35 90 35 10 0 30 9 44 20 14 11 37
20 51 20 14 0 59 18 101 40 42 22 82 40 89 40 7 0 34 11 60 25 26 14 57 25 69
25 12 0 57 18 102 40 44 22 100 44 125 49 25 5 115 35 200 66 215 79 208 79
252 13 40 -61 88 -152 88 -168 0 -5 -9 -10 -21 -10 -12 0 -19 -5 -17 -12 4
-13 100 -72 173 -106 55 -26 70 -45 54 -70 -18 -29 -49 -46 -62 -33 -14 14
-57 14 -57 1 0 -16 63 -51 82 -46 9 2 19 -1 21 -7 2 -6 36 -23 76 -37 l73 -27
-37 -31 c-44 -39 -65 -41 -65 -7 0 14 -2 25 -5 25 -18 0 -106 -53 -115 -69
-15 -30 -13 -34 20 -28 25 6 30 3 30 -14 0 -15 5 -19 18 -16 9 3 33 8 52 11
25 4 40 15 52 36 17 31 38 40 38 17 0 -7 -7 -23 -16 -35 -10 -14 -14 -33 -10
-47 5 -19 -1 -30 -34 -56 -22 -18 -42 -40 -45 -51 -5 -12 -16 -18 -38 -18 -33
0 -28 14 8 24 11 3 -8 2 -42 -1 -37 -3 -63 -1 -63 4 0 13 45 33 74 33 13 0 31
12 44 29 l21 29 -29 4 c-16 3 -49 2 -72 -1 -35 -5 -44 -10 -46 -29 -2 -15 -15
-27 -38 -37 -28 -11 -35 -19 -32 -37 4 -26 30 -35 103 -37 50 -1 85 -14 68
-24 -4 -3 -26 -8 -48 -12 -61 -10 -75 -15 -75 -27 0 -10 32 -7 77 7 18 6 21 4
16 -13 -4 -17 2 -23 36 -32 23 -6 46 -8 51 -5 6 3 10 2 10 -4 0 -6 11 -13 25
-17 14 -3 25 -11 25 -17 0 -6 -24 -7 -72 -2 -115 13 -157 15 -254 16 -80 1
-91 3 -87 17 3 13 -14 23 -79 46 -46 16 -119 45 -163 64 -59 26 -101 37 -160
41 -78 7 -154 34 -162 57 -2 6 18 16 44 23 27 7 95 34 153 61 l105 48 40 -33
c22 -18 45 -41 50 -52 22 -42 193 -206 242 -232 34 -17 65 -14 61 7 -2 11 -14
18 -36 20 -24 2 -33 9 -38 27 -3 13 -31 43 -62 67 -59 44 -212 194 -212 208 0
4 21 15 48 25 26 10 56 24 67 32 19 13 19 13 0 13 -11 0 -42 -11 -70 -25 -58
-28 -81 -31 -89 -10 -3 8 -15 15 -26 15 -24 0 -25 -8 -4 -31 16 -17 15 -19 -7
-28 -13 -5 -62 -26 -108 -46 -46 -20 -108 -45 -137 -55 l-52 -18 -104 52
c-118 59 -270 102 -309 87 -21 -7 -15 -11 51 -30 209 -62 237 -72 274 -102
l38 -32 -28 -13 c-16 -7 -24 -13 -17 -13 7 -1 22 4 35 9 18 8 36 5 82 -13 127
-49 80 -61 -239 -62 -229 0 -253 -2 -289 -20 -22 -11 -42 -25 -44 -32 -6 -20
42 -25 99 -10 38 10 73 12 119 6 35 -4 72 -3 81 1 9 5 30 5 50 -1 25 -8 62 -6
144 6 249 38 301 31 547 -71 161 -68 162 -68 247 -65 101 2 121 7 121 28 0 21
24 10 28 -13 2 -16 -13 -26 -85 -57 -48 -20 -133 -50 -189 -67 -55 -16 -134
-45 -175 -65 -40 -19 -86 -35 -101 -35 -19 0 -28 -5 -28 -16 0 -24 52 -12 210
51 74 29 164 61 200 70 82 21 178 60 202 82 39 35 128 24 128 -16 0 -32 -26
-44 -80 -37 -62 8 -66 -8 -15 -52 30 -27 40 -30 72 -25 41 7 47 7 111 5 30 -1
42 -6 42 -17 0 -12 8 -14 40 -9 37 6 39 5 45 -22 11 -48 14 -54 31 -61 12 -4
24 3 39 21 19 24 27 27 53 21 21 -4 32 -13 35 -28 3 -18 8 -13 25 26 26 58 26
57 7 57 -8 0 -15 9 -15 20 0 12 7 20 18 20 13 0 20 -13 28 -46 10 -41 9 -49
-7 -65 -25 -25 -24 -46 1 -54 27 -8 37 0 45 35 7 33 25 51 25 25 0 -8 11 -21
25 -27 26 -12 28 -16 25 -60 -2 -38 36 -90 64 -86 18 3 21 10 24 64 3 56 0 64
-28 94 -16 17 -30 40 -30 51 0 32 43 7 56 -32 9 -26 18 -35 38 -37 21 -3 26 1
26 18 0 13 5 20 13 17 8 -3 11 -26 10 -75 -2 -64 0 -72 19 -77 27 -9 36 2 40
50 3 39 4 40 43 43 43 4 55 14 55 50 0 12 6 22 13 22 16 0 47 -32 47 -48 0 -7
14 -12 32 -12 19 0 70 -21 127 -51 121 -65 124 -68 110 -85 -9 -11 -7 -14 10
-14 29 0 91 -32 119 -63 13 -14 38 -31 55 -38 55 -22 87 -49 148 -127 33 -42
68 -82 79 -89 11 -8 31 -33 44 -56 14 -23 41 -58 61 -77 19 -18 35 -38 35 -43
0 -5 -27 -7 -62 -4 -40 3 -85 -1 -124 -11 -34 -8 -72 -12 -87 -8 -31 7 -109
74 -104 89 1 5 25 18 52 28 51 19 73 35 62 45 -3 3 -30 -6 -61 -20 -30 -14
-65 -26 -78 -26 -39 0 -121 36 -153 68 -16 16 -46 37 -65 47 -19 10 -58 34
-85 55 -72 53 -115 74 -115 56 0 -7 17 -26 38 -42 20 -15 40 -33 44 -40 5 -7
32 -26 62 -43 85 -48 83 -55 -15 -47 -60 5 -103 15 -149 36 -36 16 -91 34
-122 40 -31 6 -68 20 -81 30 -14 11 -32 17 -44 14 -11 -3 -27 1 -36 10 -8 9
-27 16 -40 16 -14 0 -44 16 -67 35 -23 19 -47 35 -52 35 -6 0 -32 13 -57 28
-25 16 -64 35 -86 42 -22 7 -53 23 -68 36 -16 13 -38 24 -50 24 -41 -1 39 -56
152 -106 102 -44 171 -86 171 -103 0 -13 -92 -50 -178 -71 -42 -11 -124 -39
-182 -63 -58 -24 -127 -49 -155 -56 -27 -7 -128 -44 -223 -82 -173 -69 -325
-119 -365 -119 -12 0 -32 -11 -46 -24 -15 -13 -91 -52 -171 -86 -80 -34 -161
-71 -180 -81 -32 -17 -33 -18 -10 -18 41 -1 330 109 358 137 8 7 18 10 22 7 5
-3 35 8 68 24 32 16 84 37 116 46 31 9 69 23 84 31 15 8 34 14 42 14 8 0 38
12 65 27 49 26 186 73 214 73 8 0 22 6 30 14 22 20 139 64 194 75 26 4 52 13
59 18 33 25 270 102 316 103 12 0 63 -16 112 -35 49 -19 103 -35 119 -35 16 0
39 -9 52 -19 l24 -20 -55 5 c-40 4 -71 0 -114 -15 -78 -28 -173 -28 -226 -1
-47 24 -55 8 -16 -29 45 -42 193 -43 281 -2 24 12 63 20 100 21 33 0 69 1 80
1 31 1 187 -21 197 -27 5 -3 15 -1 22 5 9 8 23 5 51 -9 22 -11 45 -20 52 -20
54 0 -34 -55 -130 -81 -23 -6 -54 -18 -70 -26 -37 -19 -58 -10 -102 42 -23 29
-44 45 -58 45 -21 -1 -20 -2 7 -24 34 -28 28 -43 -19 -52 -41 -7 -64 -29 -47
-46 7 -7 20 -7 43 1 17 6 46 11 62 11 30 0 30 0 11 -21 -26 -29 -79 -55 -208
-104 -60 -22 -111 -45 -113 -51 -7 -22 53 -1 212 73 l160 74 65 -18 c40 -12
65 -24 65 -33 0 -7 -29 -26 -65 -42 -130 -56 -415 -161 -433 -160 -12 0 -17
-5 -15 -16 6 -30 54 -26 121 11 34 19 146 67 249 107 l188 73 45 -24 c25 -13
52 -31 60 -39 15 -17 22 -13 -430 -217 -66 -30 -122 -57 -124 -59 -3 -2 2 -11
10 -19 13 -13 22 -10 74 21 88 53 237 126 386 190 104 44 133 53 140 42 5 -7
9 -16 9 -20 0 -5 13 -8 29 -8 16 0 42 -5 56 -10 18 -7 33 -7 45 0 15 8 28 5
57 -14 21 -14 72 -39 113 -57 132 -56 203 -117 166 -144 -9 -7 -80 -34 -158
-60 -79 -26 -163 -58 -189 -71 -25 -12 -62 -25 -82 -29 -39 -8 -44 -14 -25
-33 22 -22 77 -13 141 22 34 18 86 41 115 51 28 9 52 20 52 25 0 9 85 47 148
66 39 12 43 12 65 -10 12 -12 55 -35 94 -50 89 -34 103 -53 103 -144 0 -48 6
-79 20 -107 13 -25 20 -59 20 -95 0 -49 4 -60 30 -85 16 -16 32 -26 35 -24 2
3 0 32 -5 65 -14 87 -13 134 5 140 22 9 19 24 -20 83 -37 58 -37 71 0 71 28 0
41 15 20 24 -8 3 -15 14 -15 24 0 11 -13 44 -30 75 -16 31 -30 62 -30 69 0 6
-12 24 -27 40 -31 32 -28 37 19 45 28 4 36 2 41 -13 4 -11 16 -30 27 -44 15
-19 24 -55 35 -137 8 -62 22 -130 31 -153 16 -40 16 -129 0 -170 -10 -26 8
-44 32 -31 25 13 30 41 19 104 -4 27 -7 61 -5 75 3 26 4 26 59 -31 32 -32 70
-83 85 -115 21 -41 35 -58 52 -60 30 -5 39 22 19 63 -9 19 -19 69 -23 112 -3
43 -20 139 -36 213 -24 110 -37 148 -70 203 -22 37 -39 69 -37 72 3 2 36 18
74 36 60 28 66 33 43 37 -16 2 -49 -9 -84 -28 l-58 -30 -59 122 c-68 142 -103
231 -108 273 -4 29 -2 31 64 52 69 22 97 38 97 54 0 16 -30 9 -90 -21 -89 -45
-91 -44 -105 47 -8 52 -29 83 -46 66 -9 -9 -9 -23 1 -62 6 -27 9 -54 6 -59 -3
-6 1 -15 9 -22 8 -7 15 -16 15 -20 0 -11 -170 -81 -181 -74 -5 3 -9 10 -9 16
0 13 -44 117 -76 179 -33 65 -50 140 -74 327 -14 113 -17 169 -10 182 6 12 6
36 0 71 -13 65 -13 186 -1 194 5 3 -21 65 -59 138 -82 158 -118 264 -96 281 8
6 19 44 25 84 11 72 26 111 61 162 9 14 20 43 22 65 11 79 38 152 61 163 18 9
19 11 5 11 -15 1 -18 10 -18 49 0 59 -26 88 -114 127 -33 14 -80 44 -104 66
-28 24 -49 36 -55 30 -14 -14 10 -49 53 -76 21 -13 41 -29 45 -35 3 -5 19 -10
35 -10 40 0 90 -44 90 -80 0 -68 -19 -75 -83 -29 -33 23 -52 30 -78 27 l-34
-3 47 -22 c48 -22 84 -63 75 -87 -3 -7 -21 -16 -40 -20 -39 -7 -73 -36 -43
-36 9 0 34 9 56 20 22 11 42 20 45 20 3 0 3 -17 0 -37 -5 -30 -4 -35 5 -23 9
12 10 5 4 -30 -9 -61 -20 -80 -48 -80 -13 0 -31 -9 -41 -20 -26 -29 -38 -25
-53 18 -21 58 -25 91 -14 105 8 9 1 47 -24 136 -42 148 -49 164 -73 156 -24
-7 -38 25 -16 37 22 13 19 24 -20 60 -28 25 -33 34 -21 40 24 13 505 208 588
238 42 15 90 37 105 48 15 10 40 22 56 26 15 3 27 11 27 16 0 5 7 7 15 4 8 -3
31 4 51 16 19 13 61 31 92 40 63 20 76 36 36 46 -18 5 -43 0 -78 -16 -28 -12
-61 -22 -73 -21 -14 0 -23 -5 -23 -14 0 -8 -8 -15 -18 -15 -10 0 -36 -13 -58
-30 -21 -16 -49 -30 -62 -30 -12 0 -25 -7 -28 -15 -4 -8 -14 -15 -24 -15 -10
0 -47 -13 -82 -30 -34 -16 -68 -30 -74 -30 -6 0 -17 -7 -24 -14 -6 -8 -89 -45
-183 -82 -95 -37 -194 -78 -221 -91 l-49 -25 -26 22 c-14 11 -38 26 -53 33
-15 6 -32 23 -38 38 -6 15 -25 39 -41 55 -16 15 -29 36 -29 47 0 11 -25 47
-56 80 -31 33 -60 70 -66 83 -6 12 -18 24 -28 27 -9 2 -62 60 -118 128 -55 68
-127 145 -159 170 -103 82 -302 219 -317 219 -8 0 -36 18 -61 40 -48 41 -60
47 -69 31z m725 -658 c13 -21 44 -60 70 -88 64 -70 139 -164 139 -175 0 -14
-32 -12 -50 3 -9 7 -29 29 -44 50 -22 28 -31 35 -37 25 -6 -9 -9 -6 -9 9 0 16
-17 34 -59 62 -57 39 -111 93 -111 112 0 9 54 38 72 39 3 0 17 -17 29 -37z
m76 -49 c-9 -9 -28 6 -21 18 4 6 10 6 17 -1 6 -6 8 -13 4 -17z m227 -260 c4
-11 1 -14 -11 -12 -10 2 -19 11 -21 21 -4 21 24 13 32 -9z m51 -54 c27 -30 11
-35 -21 -6 -21 18 -24 25 -13 26 9 0 24 -9 34 -20z m-60 -22 c69 -77 105 -133
105 -163 0 -16 14 -59 30 -93 40 -86 39 -109 -5 -128 -78 -32 -162 -9 -195 55
-22 44 -54 57 -48 19 2 -13 27 -40 61 -66 57 -43 58 -45 40 -63 -16 -16 -236
-119 -255 -119 -4 0 -5 7 -1 16 5 15 3 15 -23 1 -35 -18 -56 -41 -78 -84 -20
-41 -21 -67 -1 -59 20 7 19 -7 -2 -26 -16 -14 -21 -12 -51 18 l-33 34 28 0
c42 0 14 19 -39 26 -37 5 -56 2 -93 -16 -43 -21 -51 -22 -101 -11 -29 7 -63
20 -75 30 -20 16 -28 17 -87 4 -67 -14 -84 -11 -64 9 20 20 14 29 -10 17 -13
-6 -47 -29 -76 -51 -51 -38 -61 -66 -19 -52 21 7 21 6 3 -20 -23 -35 -15 -52
26 -61 18 -4 42 -14 53 -21 29 -20 35 -17 35 17 0 19 -4 28 -11 24 -6 -4 -5 2
3 14 19 31 26 26 30 -21 2 -27 8 -43 16 -43 7 0 16 -5 20 -11 4 -6 31 -24 60
-39 30 -16 64 -41 77 -56 27 -33 35 -28 35 20 0 24 3 32 11 24 7 -7 30 -3 77
15 37 14 85 28 107 31 29 4 45 14 60 37 18 26 25 30 41 22 21 -12 44 -37 44
-50 0 -14 -22 -9 -42 9 -18 16 -19 16 -25 -5 -6 -23 -14 -27 -80 -37 -24 -4
-58 -17 -77 -30 -19 -13 -48 -26 -65 -30 -27 -6 -31 -10 -25 -28 14 -47 45
-96 73 -119 16 -12 62 -60 101 -105 75 -87 110 -106 110 -58 0 15 6 25 14 25
12 0 12 -7 5 -35 -11 -40 0 -62 65 -124 48 -47 45 -57 -6 -25 -124 78 -331
266 -343 311 -3 15 -15 39 -26 54 -27 39 -134 106 -180 114 -20 4 -45 15 -54
25 -10 11 -60 36 -112 56 -92 36 -155 75 -141 89 3 3 25 -3 49 -14 51 -25 49
-25 49 -7 0 8 -9 18 -21 21 -22 7 -22 16 2 85 12 33 18 37 83 56 43 12 70 24
69 32 -2 6 6 12 17 12 13 0 18 5 14 15 -5 11 1 15 19 15 13 0 30 -7 37 -15 17
-21 35 -19 85 11 47 27 100 30 100 4 0 -8 -19 -28 -42 -45 -40 -29 -55 -55
-32 -55 20 0 77 40 97 66 16 23 19 24 31 10 11 -14 11 -16 -3 -16 -9 0 -16 -6
-16 -14 0 -9 22 -15 82 -19 45 -3 86 -3 90 -1 19 12 -6 24 -48 24 -28 0 -43 4
-39 10 19 31 -28 70 -85 70 -16 0 -32 5 -35 10 -8 13 24 13 64 -1 37 -13 80
-3 46 11 -11 5 -34 9 -52 9 -42 1 -95 22 -70 28 19 5 22 18 7 28 -15 9 -12 32
6 39 23 9 37 -3 23 -20 -16 -20 -4 -44 23 -44 21 0 21 1 3 13 -20 16 -13 23
36 37 24 7 32 5 42 -11 12 -20 52 -25 76 -10 17 11 51 -7 51 -26 0 -21 -43
-25 -108 -10 -50 12 -60 12 -51 1 6 -7 35 -16 65 -20 29 -3 52 -10 49 -13 -2
-4 -17 -6 -33 -3 -16 2 -33 -1 -36 -7 -4 -7 1 -11 12 -11 11 0 25 -7 32 -15
14 -17 73 -30 95 -21 13 5 14 10 5 27 -24 43 10 90 39 55 12 -14 122 -27 165
-19 40 8 31 30 -19 47 -25 9 -64 23 -88 31 -23 8 -63 15 -89 15 l-46 0 9 38
c4 20 6 47 2 60 -7 29 39 96 89 129 32 22 36 29 31 54 -4 22 -2 29 9 29 9 0
41 14 72 30 31 17 61 28 65 26 5 -3 16 3 26 14 24 26 25 26 60 -12z m-1043
-88 c-4 -37 -6 -39 -18 -23 -17 22 -17 36 -2 51 20 20 24 14 20 -28z m38 36
c0 -3 -4 -8 -10 -11 -5 -3 -10 -1 -10 4 0 6 5 11 10 11 6 0 10 -2 10 -4z
m-660 -131 c17 -25 26 -45 21 -45 -10 0 -61 68 -61 82 0 16 10 7 40 -37z
m1834 -51 l15 -49 -19 24 c-11 13 -20 37 -20 54 0 39 7 32 24 -29z m-1234 -34
c5 0 10 6 13 13 2 6 7 9 11 6 13 -12 -7 -39 -29 -39 -31 0 -39 14 -23 42 l13
23 3 -22 c2 -13 7 -23 12 -23z m54 -22 c-4 -13 -8 -30 -8 -39 0 -12 -5 -15
-20 -9 -26 9 -32 28 -9 26 12 0 19 7 21 22 2 12 8 22 13 22 6 0 7 -9 3 -22z
m36 -14 c0 -8 -4 -12 -10 -9 -5 3 -10 13 -10 21 0 8 5 12 10 9 6 -3 10 -13 10
-21z m98 -67 c-3 -23 -20 -27 -27 -6 -2 7 1 9 8 5 7 -5 9 3 5 26 -4 27 -3 30
6 15 6 -10 10 -28 8 -40z m442 38 c0 -9 -9 -15 -21 -15 -18 0 -19 2 -9 15 7 8
16 15 21 15 5 0 9 -7 9 -15z m-515 -35 c-5 -24 -4 -29 8 -24 8 3 17 -2 20 -10
4 -10 1 -13 -9 -9 -10 4 -14 -3 -14 -26 0 -17 -5 -31 -11 -31 -8 0 -10 12 -6
35 3 20 2 33 -3 30 -19 -12 -40 8 -38 36 2 25 6 29 31 29 27 0 28 -2 22 -30z
m-61 -43 c4 -16 2 -16 -12 -5 -22 17 -41 41 -42 51 0 15 49 -28 54 -46z m222
6 c-7 -7 -26 7 -26 19 0 6 6 6 15 -2 9 -7 13 -15 11 -17z m961 -4 c-3 -11 1
-35 8 -53 20 -46 4 -66 -23 -28 -12 16 -35 33 -52 38 -43 12 -40 26 12 45 58
22 61 22 55 -2z m-1227 -14 c19 -20 20 -25 7 -25 -17 0 -47 26 -47 41 0 16 16
10 40 -16z m250 -4 c0 -4 -13 -22 -29 -38 -30 -32 -111 -56 -111 -34 0 11 13
15 37 12 19 -2 24 16 8 29 -26 22 -17 33 23 27 20 -4 44 -2 52 3 19 12 20 12
20 1z m158 -26 c-1 -1 -22 -12 -45 -24 -56 -28 -59 -6 -6 32 32 23 39 25 46
11 5 -8 7 -17 5 -19z m459 29 c-3 -3 -12 -4 -19 -1 -8 3 -5 6 6 6 11 1 17 -2
13 -5z m-562 -34 c-21 -23 -35 -26 -35 -6 0 15 14 24 39 25 11 1 10 -4 -4 -19z
m857 -26 c20 -13 49 -44 64 -70 37 -62 95 -225 88 -246 -3 -9 7 -41 22 -70 35
-69 46 -108 31 -108 -7 0 -41 18 -77 40 -36 22 -73 40 -83 40 -17 0 -16 -3 5
-29 13 -16 35 -32 50 -36 15 -4 53 -24 85 -46 32 -21 62 -40 67 -42 11 -4 18
-77 19 -222 1 -71 7 -128 14 -140 17 -30 0 -51 -63 -74 l-55 -21 -93 60 c-51
33 -115 68 -142 77 -27 8 -56 22 -65 29 -21 19 -29 17 -29 -6 0 -11 7 -20 15
-20 9 0 15 -9 15 -25 0 -42 38 -127 72 -162 17 -18 28 -33 23 -33 -5 0 6 -11
25 -24 20 -13 41 -35 48 -48 8 -14 28 -30 45 -36 18 -7 66 -41 107 -77 86 -73
75 -62 175 -183 100 -122 127 -163 122 -184 -4 -13 1 -18 16 -18 15 0 27 -10
35 -29 11 -25 10 -33 -6 -61 l-20 -32 -25 34 c-29 39 -43 78 -28 78 6 0 3 9
-6 19 -28 30 -55 71 -80 121 -27 55 -89 117 -208 208 -49 38 -90 75 -90 83 0
8 -14 23 -31 34 -45 28 -104 83 -104 95 0 5 -8 10 -18 10 -9 0 -40 24 -69 54
-29 29 -65 57 -80 60 -39 10 -73 34 -73 51 0 12 9 11 53 -6 79 -32 84 -33 92
-10 7 24 -18 76 -44 91 -34 18 -43 11 -22 -16 22 -27 28 -54 12 -54 -4 0 -20
9 -34 20 -14 11 -30 20 -35 20 -6 0 -12 10 -14 23 -3 23 35 53 53 41 16 -10
49 17 59 49 l10 32 -6 -37 c-7 -52 23 -48 93 12 17 15 37 30 45 33 10 4 11 7
1 18 -11 11 -21 10 -60 -4 -27 -9 -51 -17 -54 -17 -7 0 -37 67 -64 146 -10 28
-27 62 -37 75 -11 13 -17 18 -13 12 3 -7 1 -13 -4 -13 -6 0 -11 7 -11 15 0 8
4 15 9 15 5 0 7 9 4 19 -3 11 0 36 7 57 10 29 10 38 -1 45 -10 6 -6 11 13 19
19 9 43 9 98 1 42 -7 77 -8 82 -3 5 5 -10 26 -34 48 -36 33 -55 42 -115 53
-64 13 -75 12 -97 -2 -23 -15 -26 -15 -50 4 -31 24 -34 43 -6 34 12 -4 20 -2
20 5 0 6 -13 13 -30 17 -37 7 -37 16 -5 55 14 17 24 36 22 42 -2 6 35 27 82
47 47 20 111 50 141 67 61 35 83 34 142 -4z m-1167 16 c8 -13 -35 -13 -55 0
-11 7 -7 10 17 10 17 0 35 -4 38 -10z m85 -10 c0 -5 -11 -10 -24 -10 -14 0
-28 5 -31 10 -4 6 7 10 24 10 17 0 31 -4 31 -10z m-92 -47 c3 -17 -3 -24 -23
-29 -29 -7 -45 6 -45 39 0 29 64 19 68 -10z m-102 -18 c-4 -11 0 -15 12 -13
13 2 16 -3 14 -24 -1 -14 2 -29 8 -33 16 -10 12 -25 -5 -19 -8 4 -15 15 -15
25 0 11 -7 22 -15 25 -17 7 -21 54 -4 54 6 0 8 -7 5 -15z m259 6 c8 -13 -21
-27 -72 -36 -45 -7 -55 2 -28 25 8 7 26 10 40 8 14 -3 28 -1 31 3 7 12 21 11
29 0z m1235 -36 c0 -72 -24 -108 -58 -87 -9 7 -9 19 4 58 29 86 54 100 54 29z
m-1366 -10 c-6 -16 -34 -21 -34 -7 0 13 11 22 26 22 8 0 11 -6 8 -15z m-201
-28 c4 3 7 -1 7 -10 0 -9 8 -20 17 -26 35 -19 3 -23 -49 -5 -29 10 -54 19 -56
20 -2 1 5 11 15 21 15 17 21 17 39 6 11 -7 24 -10 27 -6z m957 17 c0 -3 -11
-19 -25 -36 -25 -29 -25 -29 -25 -6 0 13 5 29 12 36 12 12 38 16 38 6z m-782
-64 c-24 -42 -41 -47 -46 -12 -2 14 5 25 25 36 43 23 46 20 21 -24z m-143 -50
c9 -15 -9 -12 -86 11 -51 15 -69 26 -69 38 0 10 2 20 5 23 6 6 142 -59 150
-72z m65 36 c0 -5 -7 -3 -15 4 -8 7 -12 17 -9 22 7 10 24 -9 24 -26z m474 -7
l38 -11 -23 -24 c-19 -20 -20 -24 -5 -24 14 0 15 -2 4 -14 -11 -12 -14 -11
-20 4 -5 13 -23 18 -74 23 -37 4 -72 11 -78 17 -16 16 -34 12 -78 -20 -22 -16
-45 -30 -50 -30 -13 0 -9 27 7 40 8 7 15 21 15 32 0 16 5 19 25 16 15 -3 22
-1 18 5 -8 13 165 2 221 -14z m144 -11 c-8 -12 -24 -28 -36 -36 -21 -14 -22
-13 -22 12 0 20 5 26 21 26 11 0 17 5 14 10 -3 6 4 10 16 10 20 0 20 -2 7 -22z
m53 -48 c10 -6 19 -14 19 -19 0 -9 -131 -44 -138 -37 -2 3 6 18 19 35 26 32
64 40 100 21z m176 -12 c22 -21 31 -48 15 -48 -11 0 -62 49 -62 60 0 17 23 11
47 -12z m-931 1 c4 -8 9 -8 17 0 6 6 18 11 26 11 12 0 12 -3 3 -12 -21 -21
-14 -41 12 -34 37 9 39 -7 6 -39 -25 -24 -48 -71 -66 -132 -7 -25 -31 -2 -26
24 4 21 2 25 -12 20 -10 -4 -16 -1 -16 9 0 28 20 54 43 54 20 1 21 2 5 14 -10
7 -18 18 -18 24 0 6 8 13 18 15 13 4 12 5 -5 6 -26 1 -35 13 -27 35 7 18 30
21 40 5z m448 5 c14 -5 14 -8 1 -21 -17 -16 -35 -9 -35 13 0 15 9 17 34 8z
m61 -14 c-3 -5 -10 -10 -16 -10 -5 0 -9 5 -9 10 0 6 7 10 16 10 8 0 12 -4 9
-10z m-108 -32 c-3 -8 -6 -5 -6 6 -1 11 2 17 5 13 3 -3 4 -12 1 -19z m750 11
l28 -11 -24 -9 c-14 -6 -36 -7 -50 -5 -22 5 -34 -3 -71 -46 -39 -44 -42 -51
-21 -45 l23 6 -22 -24 c-30 -32 -80 -48 -111 -37 l-24 9 34 32 c18 17 44 34
57 37 19 5 23 11 18 26 -4 13 3 28 25 49 34 32 85 39 138 18z m-570 -13 c-3
-7 0 -19 6 -25 8 -8 2 -11 -23 -12 -19 0 -29 -3 -22 -6 16 -6 16 -33 -1 -33
-7 0 -30 12 -51 26 -46 31 -38 45 32 55 26 3 51 7 56 8 4 0 6 -5 3 -13z m-356
-81 c9 -19 12 -38 8 -42 -8 -8 -20 -55 -22 -85 -1 -10 -5 -18 -10 -18 -5 0 -7
12 -4 28 6 29 -9 115 -26 146 -9 19 -10 19 -23 1 -13 -17 -14 -16 -14 14 l0
32 38 -21 c20 -12 44 -37 53 -55z m33 14 c-8 -13 -24 -1 -24 18 0 13 3 13 15
3 8 -7 12 -16 9 -21z m-130 -15 c8 -32 -22 -107 -41 -100 -10 4 -10 1 0 -15
10 -18 9 -23 -10 -36 -13 -9 -23 -25 -23 -37 -1 -23 -25 -55 -55 -72 -47 -26
-21 -58 26 -33 15 7 24 7 34 -1 8 -6 29 -8 54 -4 40 6 41 6 39 -21 -2 -26 -4
-26 -45 -20 -48 7 -56 0 -18 -15 36 -14 31 -37 -7 -43 -37 -5 -50 7 -45 40 4
19 -2 22 -55 28 -57 7 -76 22 -40 32 18 4 46 56 45 81 -1 9 6 12 18 9 12 -3
19 0 18 6 -3 20 12 47 27 47 8 0 14 5 14 10 0 6 -7 10 -15 10 -27 0 -17 54 22
113 21 30 41 54 44 51 4 -2 10 -15 13 -30z m160 -25 c-5 -9 -34 -13 -34 -5 0
2 3 12 6 20 5 13 9 14 20 5 8 -6 11 -15 8 -20z m85 -21 c12 -31 4 -36 -19 -11
-10 12 -16 24 -13 27 12 12 24 6 32 -16z m460 -10 c-2 -2 -18 -13 -36 -26 -18
-12 -36 -22 -41 -22 -5 0 -19 -11 -32 -25 -23 -25 -50 -33 -50 -16 0 14 57 69
79 76 10 3 27 15 37 26 16 17 19 18 33 5 8 -9 13 -17 10 -18z m-532 -10 c-3
-7 -5 -2 -5 12 0 14 2 19 5 13 2 -7 2 -19 0 -25z m-29 -50 c23 -68 31 -136 18
-157 -7 -10 -10 -10 -16 -1 -6 9 -16 10 -36 3 -27 -9 -31 -7 -66 40 -48 64
-52 111 -9 100 13 -3 17 -14 17 -44 -1 -22 4 -41 12 -44 8 -3 12 5 12 22 0 33
17 19 22 -17 4 -31 32 -33 36 -4 2 12 -4 39 -12 59 -17 40 -22 105 -8 105 5 0
18 -28 30 -62z m422 52 c0 -13 -11 -13 -30 0 -12 8 -11 10 8 10 12 0 22 -4 22
-10z m-353 -42 c-3 -7 -5 -2 -5 12 0 14 2 19 5 13 2 -7 2 -19 0 -25z m181 1
c13 0 11 -3 -6 -11 -28 -14 -33 -9 -25 22 6 19 8 21 11 8 2 -10 11 -18 20 -19z
m-69 -26 c-1 -36 6 -62 26 -100 15 -29 31 -53 36 -53 4 0 4 -12 0 -27 -5 -20
-16 -29 -39 -34 -21 -4 -32 -2 -36 7 -6 16 13 30 37 26 9 -2 17 2 17 9 0 7
-10 9 -30 6 -16 -4 -30 -5 -30 -3 0 3 -3 12 -7 22 -4 11 -3 15 5 10 6 -3 18 4
26 16 14 20 14 23 0 31 -12 7 -19 5 -26 -7 -7 -13 -12 -13 -28 -4 -17 11 -18
15 -4 47 8 20 18 37 23 39 4 1 5 16 3 32 -3 23 0 30 12 30 14 0 17 -9 15 -47z
m431 37 c13 -8 13 -10 -2 -10 -9 0 -20 5 -23 10 -8 13 5 13 25 0z m145 0 c3
-6 0 -17 -8 -25 -13 -12 -15 -11 -13 10 1 26 10 32 21 15z m-649 -54 c-15 -32
-24 -42 -38 -38 -14 3 -15 8 -8 22 6 10 14 30 19 44 7 17 15 23 28 20 18 -5
18 -7 -1 -48z m-479 22 c-3 -8 -6 -5 -6 6 -1 11 2 17 5 13 3 -3 4 -12 1 -19z
m63 -29 c0 -16 -6 -32 -14 -35 -10 -4 -13 -15 -9 -40 5 -29 3 -33 -10 -28 -12
4 -16 18 -14 58 3 77 47 119 47 45z m982 -4 c-3 -17 -13 -24 -34 -27 -39 -6
-48 16 -18 47 18 19 26 22 39 13 11 -7 16 -19 13 -33z m-162 20 c-7 -9 -15
-13 -17 -11 -7 7 7 26 19 26 6 0 6 -6 -2 -15z m-917 -29 c7 -17 -19 -56 -37
-56 -8 0 -16 9 -19 20 -3 13 0 20 9 20 8 0 17 7 20 15 8 19 20 19 27 1z m662
-30 c3 -8 7 -7 11 2 8 18 26 15 22 -5 -3 -19 -54 -25 -68 -8 -5 6 -6 22 -3 34
6 22 7 23 19 6 7 -10 16 -23 19 -29z m-1398 23 c-14 -8 -22 -8 -30 0 -8 8 -3
11 19 11 25 -1 27 -2 11 -11z m993 2 c0 -12 -20 -25 -27 -18 -7 7 6 27 18 27
5 0 9 -4 9 -9z m524 -96 c10 -16 12 -22 4 -13 -11 13 -17 15 -26 6 -9 -9 -12
-5 -12 16 0 19 -6 29 -20 33 -21 6 -24 12 -14 38 7 16 23 -2 68 -80z m336 87
c0 -5 -7 -17 -16 -28 -8 -10 -14 -14 -11 -9 2 6 7 18 10 28 7 17 17 23 17 9z
m70 -123 c0 -36 -7 -40 -45 -22 -24 11 -34 24 -37 44 -4 23 -1 29 14 29 14 0
18 8 19 38 l1 37 24 -50 c13 -27 24 -62 24 -76z m-202 76 l4 -29 -20 24 c-20
25 -20 44 1 37 7 -2 14 -17 15 -32z m-470 -15 c25 -24 26 -25 11 -51 -6 -12
-17 -18 -25 -15 -9 3 -17 -2 -21 -12 -4 -9 -11 -20 -17 -25 -7 -5 -5 -11 7
-18 18 -11 24 -59 7 -59 -5 0 -10 6 -10 14 0 8 -8 21 -18 28 -10 7 -21 30 -25
51 -6 41 -1 49 12 15 9 -23 9 -23 20 5 6 16 11 42 11 58 0 34 17 38 48 9z
m1282 -40 c0 -26 -3 -31 -10 -20 -5 8 -10 31 -10 50 0 26 3 31 10 20 5 -8 10
-31 10 -50z m-1503 25 c10 -23 9 -25 -11 -25 -29 0 -73 36 -54 43 30 12 53 6
65 -18z m943 -26 c0 -9 7 -22 15 -29 17 -14 21 -50 5 -50 -14 0 -26 29 -34 80
-4 31 -3 40 4 30 5 -8 10 -22 10 -31z m-528 -11 c-7 -7 -12 -8 -12 -2 0 14 12
26 19 19 2 -3 -1 -11 -7 -17z m-317 -25 c14 -15 25 -31 25 -34 0 -12 -52 -17
-55 -5 -21 70 -12 83 30 39z m-65 -33 c0 -5 -7 -10 -16 -10 -8 0 -12 5 -9 10
3 6 10 10 16 10 5 0 9 -4 9 -10z m440 -10 c0 -16 -52 -70 -67 -70 -13 0 -13 3
1 25 9 14 14 30 11 35 -3 6 1 10 9 10 9 0 16 4 16 10 0 5 7 7 15 4 8 -4 15
-10 15 -14z m75 -22 c-14 -84 -41 -107 -32 -28 7 55 13 70 28 70 7 0 8 -15 4
-42z m-198 12 c3 -11 9 -20 14 -20 5 0 9 -5 9 -12 0 -9 -3 -9 -12 0 -9 9 -17
5 -36 -15 -33 -36 -47 -12 -18 33 24 38 36 42 43 14z m499 8 c4 -6 2 -14 -4
-16 -21 -7 -2 -22 29 -22 24 0 29 4 29 24 0 17 5 23 18 21 31 -4 5 -75 -28
-75 -10 0 -26 -10 -34 -21 -14 -21 -15 -21 -18 12 -2 18 -9 35 -17 37 -8 3
-11 0 -7 -7 4 -6 2 -11 -3 -11 -6 0 -11 5 -11 10 0 6 -5 9 -12 8 -6 -2 -14 5
-16 15 -2 12 3 17 17 17 11 0 23 5 26 10 8 13 22 13 31 -2z m-605 -41 c-8 -8
-11 -7 -11 4 0 20 13 34 18 19 3 -7 -1 -17 -7 -23z m1269 -48 c0 -38 -4 -58
-10 -54 -5 3 -10 33 -10 66 0 38 4 58 10 54 6 -3 10 -33 10 -66z m-1457 41 c3
-11 1 -18 -4 -14 -5 3 -9 12 -9 20 0 20 7 17 13 -6z m68 0 c17 0 29 -27 29
-65 0 -19 -2 -19 -18 3 -17 22 -19 22 -32 7 -18 -22 -64 -45 -89 -45 -17 0
-18 3 -8 29 6 17 15 27 19 25 5 -3 15 -1 22 5 8 7 18 11 22 10 21 -3 26 2 14
16 -15 18 -3 42 13 26 6 -6 19 -11 28 -11z m-221 -32 c0 -4 -4 -8 -9 -8 -5 0
-16 -3 -25 -6 -12 -5 -16 0 -16 20 0 24 2 25 25 14 14 -6 25 -15 25 -20z m37
17 c8 -22 -6 -33 -17 -15 -13 20 -12 30 0 30 6 0 13 -7 17 -15z m330 -17 c-3
-8 -6 -5 -6 6 -1 11 2 17 5 13 3 -3 4 -12 1 -19z m357 -9 c-8 -14 -24 -10 -24
6 0 9 6 12 15 9 8 -4 12 -10 9 -15z m68 -23 c13 -18 9 -36 -7 -36 -9 0 -18 -7
-21 -15 -4 -8 -10 -15 -15 -15 -14 0 -11 48 4 54 9 5 9 7 -1 12 -6 3 -10 10
-7 14 7 11 37 1 47 -14z m-222 -52 c0 -13 -4 -24 -10 -24 -15 0 -42 60 -35 78
6 15 9 14 26 -7 10 -13 19 -34 19 -47z m332 -31 c10 -12 55 -39 101 -61 75
-37 168 -112 138 -112 -6 0 -22 11 -34 23 -12 13 -35 28 -52 34 -16 6 -54 27
-84 47 -29 20 -65 36 -81 36 -22 0 -30 6 -39 31 -6 18 -11 36 -11 41 0 12 41
-13 62 -39z m-276 0 c-11 -11 -19 6 -11 24 8 17 8 17 12 0 3 -10 2 -21 -1 -24z
m654 -49 c33 -22 60 -45 60 -51 0 -16 -43 -27 -75 -19 -34 9 -75 72 -75 116 0
33 1 34 15 14 8 -12 41 -39 75 -60z m-565 34 c15 -22 14 -24 -15 -36 -37 -15
-46 -11 -53 23 -3 19 -1 25 9 21 7 -3 16 -1 19 4 10 16 23 12 40 -12z m593 -1
c24 -19 11 -26 -18 -9 -16 9 -30 20 -30 24 0 9 29 -1 48 -15z m246 -59 c3 -13
6 -40 6 -60 0 -31 -4 -38 -19 -38 -11 0 -28 -3 -38 -6 -14 -5 -15 -4 -3 4 12
9 12 16 -5 49 -11 21 -21 41 -23 45 -3 6 43 26 64 27 7 1 14 -9 18 -21z m56
-18 c0 -5 -4 -10 -10 -10 -5 0 -10 5 -10 10 0 6 5 10 10 10 6 0 10 -4 10 -10z
m-178 -80 c52 -54 59 -70 28 -70 -11 0 -20 -5 -20 -11 0 -8 12 -10 34 -6 33 5
34 4 55 -50 12 -31 19 -58 16 -61 -2 -3 -22 13 -42 35 -21 22 -75 68 -120 102
-96 71 -102 80 -78 98 38 27 76 16 127 -37z m192 -48 c3 -15 10 -70 16 -122 7
-66 18 -110 35 -143 29 -57 29 -58 11 -51 -24 9 -101 127 -98 150 2 12 -4 39
-12 59 -20 46 -22 75 -4 57 23 -23 31 -12 25 32 -4 24 -4 46 0 49 10 11 21 -2
27 -31z m394 -478 c13 -42 20 -79 17 -82 -3 -3 -34 10 -69 29 -68 35 -86 34
-69 -4 7 -15 26 -28 54 -36 56 -16 105 -53 125 -94 9 -18 27 -44 41 -58 28
-30 41 -92 24 -113 -18 -22 -69 -30 -87 -15 -9 7 -27 36 -41 63 -14 28 -47 83
-73 121 -26 39 -56 88 -68 111 -11 22 -28 46 -36 53 -26 22 -19 28 48 51 34
11 72 27 82 35 10 8 21 15 24 15 4 0 16 -34 28 -76z m-797 19 c28 -33 132
-103 154 -103 13 0 61 9 107 20 198 47 198 10 -1 -65 -70 -26 -165 -75 -148
-75 11 0 252 98 298 121 l36 18 26 -27 c14 -15 44 -58 67 -97 23 -38 52 -81
64 -95 29 -33 89 -147 84 -161 -4 -11 -93 -49 -115 -49 -6 0 -38 23 -70 50
-61 53 -181 120 -217 120 -11 0 -43 12 -71 25 -27 14 -61 25 -74 25 -42 0 -81
50 -48 63 6 3 0 6 -15 6 -35 1 -59 25 -99 96 -32 57 -81 105 -87 86 -2 -6 8
-25 23 -42 14 -17 24 -36 22 -42 -2 -6 10 -21 27 -32 16 -11 38 -35 49 -52
l19 -33 -33 14 c-18 8 -43 23 -55 35 -12 12 -27 21 -33 21 -6 0 -11 5 -11 10
0 6 -8 10 -19 10 -10 0 -30 9 -45 21 -15 11 -38 24 -53 28 -40 11 -39 28 3 41
20 7 69 27 108 46 83 38 89 39 107 17z m683 -205 c58 -94 112 -216 100 -228
-20 -19 -48 -15 -60 10 -40 78 -53 117 -47 139 6 22 4 23 -22 19 -27 -6 -27
-5 -22 34 6 48 0 68 -20 68 -13 0 -13 3 -3 15 7 8 16 15 21 15 4 0 28 -33 53
-72z m325 -276 c54 -81 59 -94 63 -153 2 -35 13 -103 23 -151 11 -48 16 -90
12 -94 -3 -4 -27 16 -53 45 -25 28 -56 54 -69 57 -17 4 -25 15 -30 42 -3 21
-24 92 -46 159 -21 67 -39 129 -39 138 0 13 48 43 72 45 4 0 34 -40 67 -88z
m-303 -10 c26 -18 44 -60 44 -103 l0 -47 -68 33 c-60 30 -112 70 -101 78 6 4
103 45 109 46 3 0 10 -3 16 -7z m114 -197 c0 -52 -21 -48 -34 8 -5 23 -3 27
14 27 16 0 20 -7 20 -35z"/>
<path d="M2551 3009 c-15 -6 -21 -13 -15 -19 11 -11 54 -2 54 11 0 14 -14 17
-39 8z"/>
<path d="M2406 3205 c4 -8 10 -15 14 -15 4 0 10 7 14 15 4 10 -1 15 -14 15
-13 0 -18 -5 -14 -15z"/>
<path d="M725 4188 c-4 -10 6 -37 29 -72 41 -63 117 -119 213 -155 35 -13 78
-40 108 -68 44 -41 62 -50 155 -75 96 -27 109 -33 155 -78 53 -51 119 -88 93
-51 -25 35 -143 132 -168 137 -14 3 -45 12 -69 20 -25 8 -53 14 -64 14 -10 0
-44 22 -75 49 -31 26 -102 75 -156 107 -101 60 -141 92 -188 154 -22 29 -27
32 -33 18z"/>
<path d="M3435 4149 c-74 -20 -233 -78 -265 -95 -31 -16 -33 -19 -13 -22 12
-2 35 4 52 12 16 9 46 16 64 16 19 0 55 11 78 25 27 15 60 25 85 25 37 0 86
22 74 33 -12 11 -47 14 -75 6z"/>
<path d="M2540 4031 c0 -5 14 -21 31 -35 31 -27 72 -33 99 -16 13 8 12 10 -3
10 -10 0 -40 11 -67 25 -55 28 -60 29 -60 16z"/>
<path d="M4520 3763 c-19 -7 -70 -54 -70 -65 0 -13 33 -9 54 7 11 8 30 15 43
15 18 0 23 6 23 25 0 25 -15 31 -50 18z"/>
<path d="M4255 3582 c-16 -10 -75 -45 -130 -77 -92 -54 -196 -125 -182 -125
19 0 73 28 152 80 50 32 108 65 130 74 41 18 75 43 75 58 0 12 -12 10 -45 -10z"/>
<path d="M2486 3379 c-29 -34 -33 -49 -13 -49 26 0 66 63 47 75 -4 3 -20 -9
-34 -26z"/>
<path d="M2130 3166 c0 -8 9 -24 20 -37 19 -22 21 -23 30 -6 6 9 18 17 25 17
26 0 16 16 -18 28 -43 16 -57 15 -57 -2z"/>
<path d="M4544 3142 c-23 -20 -79 -57 -125 -81 -46 -24 -109 -59 -139 -77 -30
-18 -82 -40 -115 -50 -68 -19 -154 -60 -204 -98 -19 -14 -44 -26 -54 -26 -21
0 -91 -39 -84 -47 7 -7 143 51 442 189 149 69 291 133 318 143 48 18 55 31 37
66 -15 27 -29 23 -76 -19z"/>
<path d="M1867 3013 c-16 -15 -4 -23 36 -23 39 1 41 2 23 15 -21 16 -48 20
-59 8z"/>
<path d="M4354 2445 c-59 -30 -121 -68 -138 -84 -19 -18 -82 -50 -163 -82 -73
-30 -133 -59 -133 -65 0 -17 58 -1 130 36 31 15 75 33 99 40 24 6 60 24 80 40
20 16 87 55 150 87 63 32 116 64 119 71 8 24 -39 11 -144 -43z"/>
<path d="M410 2407 c-63 -23 -72 -31 -58 -50 11 -14 19 -15 50 -7 21 6 44 21
53 33 28 40 17 46 -45 24z"/>
<path d="M4555 2120 c-10 -17 -117 -67 -273 -130 -81 -32 -164 -65 -185 -74
-21 -10 -64 -22 -95 -27 -31 -6 -65 -17 -76 -25 -19 -13 -18 -14 16 -14 19 0
66 11 102 25 37 14 73 25 82 25 9 0 52 18 96 40 45 22 96 40 113 40 18 0 38 6
45 14 6 8 47 27 91 41 90 30 125 54 116 78 -7 19 -23 22 -32 7z"/>
<path d="M2350 2045 c-14 -8 -50 -22 -80 -31 -57 -17 -148 -60 -210 -99 -19
-12 -78 -41 -130 -64 -52 -24 -104 -52 -115 -63 l-20 -20 24 7 c14 4 120 54
237 110 116 56 232 110 257 120 25 9 54 26 63 36 20 22 9 24 -26 4z"/>
<path d="M3240 1923 c-8 -3 -44 -16 -78 -30 -35 -13 -66 -22 -69 -19 -3 3 -17
-4 -31 -14 -13 -11 -36 -20 -49 -20 -14 0 -37 -6 -51 -14 -23 -12 -149 -68
-202 -90 -8 -3 1 -3 20 0 19 4 79 24 133 45 53 22 104 39 112 39 8 0 51 16 97
37 46 20 106 44 133 54 34 12 42 18 25 18 -14 0 -32 -3 -40 -6z"/>
<path d="M2325 1751 c-27 -10 -99 -37 -160 -60 -60 -23 -166 -60 -235 -82
-120 -39 -150 -53 -138 -64 6 -6 490 155 534 178 26 13 65 48 53 47 -2 -1 -26
-9 -54 -19z"/>
<path d="M1285 1656 c-171 -58 -595 -230 -640 -261 -20 -13 -58 -31 -85 -40
-26 -9 -54 -22 -60 -30 -8 -10 2 -9 37 5 26 10 64 24 83 30 19 7 64 27 100 46
98 49 565 230 669 258 25 7 46 17 49 24 6 19 -13 15 -153 -32z"/>
<path d="M1446 1540 c-27 -16 -113 -57 -190 -91 -125 -55 -213 -109 -178 -109
7 0 74 29 148 65 74 36 137 65 140 65 2 0 21 11 42 23 20 13 50 27 67 31 33 8
55 23 55 37 0 17 -35 8 -84 -21z"/>
<path d="M2275 1486 c-44 -13 -54 -39 -17 -44 28 -4 72 23 72 43 0 17 -2 17
-55 1z"/>
<path d="M873 1229 c-139 -57 -389 -129 -422 -123 -38 8 -48 -11 -16 -32 33
-22 72 -15 174 30 44 19 109 43 143 51 35 9 97 33 138 53 90 43 83 39 79 50
-2 4 -45 -9 -96 -29z"/>
<path d="M984 1085 c-18 -14 -18 -14 6 -14 14 0 36 6 50 14 l25 14 -31 1 c-16
0 -39 -7 -50 -15z"/>
</g>
</svg>
