<?xml version="1.0" standalone="no"?>
<!DOCTYPE svg PUBLIC "-//W3C//DTD SVG 20010904//EN"
 "http://www.w3.org/TR/2001/REC-SVG-20010904/DTD/svg10.dtd">
<svg version="1.0" xmlns="http://www.w3.org/2000/svg"
 width="500.000000pt" height="500.000000pt" viewBox="0 0 500.000000 500.000000"
 preserveAspectRatio="xMidYMid meet">

<g transform="translate(0.000000,500.000000) scale(0.100000,-0.100000)"
fill="#000000" stroke="none">
<path d="M0 2500 l0 -2500 2500 0 2500 0 0 2500 0 2500 -2500 0 -2500 0 0
-2500z m2683 2093 c20 -18 46 -33 56 -33 11 0 23 -4 26 -10 3 -5 45 -36 93
-69 156 -108 225 -170 323 -289 53 -64 102 -116 108 -114 6 1 14 -6 18 -15 4
-10 30 -44 59 -75 29 -32 56 -68 60 -80 3 -13 19 -39 34 -58 15 -19 30 -45 34
-57 4 -12 13 -20 20 -17 7 3 29 -9 50 -25 l37 -29 82 37 c45 21 129 55 186 76
56 21 117 48 135 60 18 12 44 25 59 29 27 6 161 66 207 91 14 8 41 22 60 32
19 10 40 24 46 32 6 8 16 11 22 7 6 -4 30 3 52 14 23 12 55 20 72 18 37 -4 51
-28 16 -28 -13 0 -56 -15 -95 -34 -39 -19 -73 -32 -76 -30 -3 3 -13 1 -24 -5
-44 -23 -174 -82 -238 -107 -190 -74 -478 -193 -487 -202 -6 -6 2 -17 21 -31
33 -24 40 -48 16 -57 -23 -9 1 -47 25 -39 14 5 21 -3 33 -37 33 -91 64 -219
55 -225 -17 -10 16 -143 35 -143 5 0 20 9 34 20 14 11 34 20 44 20 17 0 28 23
42 88 4 18 2 22 -9 18 -17 -6 -18 8 -4 35 13 23 -3 25 -40 4 -29 -17 -64 -20
-55 -5 3 6 16 10 29 10 12 0 31 6 41 14 18 13 18 15 2 40 -10 14 -35 35 -57
46 -22 11 -40 23 -40 25 0 16 53 1 94 -26 43 -29 49 -30 63 -16 38 38 1 108
-65 123 -45 11 -132 73 -132 95 0 26 5 24 53 -15 23 -18 69 -47 102 -64 79
-39 100 -63 98 -113 -2 -28 2 -39 13 -39 7 0 14 -4 14 -10 0 -5 -8 -10 -18
-10 -14 0 -22 -16 -36 -73 -10 -41 -19 -82 -20 -93 0 -10 -11 -33 -23 -50 -30
-42 -41 -72 -53 -152 -6 -36 -16 -70 -22 -73 -23 -15 32 -167 112 -308 34 -60
38 -74 28 -90 -9 -15 -9 -44 0 -126 7 -60 8 -113 3 -119 -9 -12 10 -189 33
-316 8 -47 36 -126 72 -208 67 -151 56 -144 167 -95 55 25 67 39 48 59 -5 5
-12 37 -16 72 -6 52 -5 62 8 62 18 0 23 -14 33 -83 4 -29 13 -51 22 -54 8 -4
43 8 77 25 65 33 85 39 85 22 0 -15 -40 -37 -102 -54 -32 -9 -58 -20 -58 -25
0 -55 152 -393 173 -385 7 2 34 15 61 29 52 26 76 31 76 16 0 -5 -21 -17 -47
-27 -72 -26 -81 -37 -60 -76 10 -18 26 -46 37 -63 22 -35 64 -221 79 -347 6
-49 15 -97 21 -107 5 -11 10 -29 10 -41 0 -16 -5 -21 -22 -18 -16 2 -30 17
-45 49 -24 50 -121 159 -141 159 -9 0 -10 -12 -5 -42 13 -75 10 -130 -9 -141
-27 -18 -32 -2 -18 62 11 53 10 65 -8 122 -12 35 -24 91 -27 124 -9 86 -24
141 -46 161 -11 9 -19 23 -19 31 0 17 -41 17 -64 0 -16 -12 -15 -14 8 -36 15
-14 26 -32 26 -40 0 -9 12 -34 25 -56 14 -22 25 -50 25 -61 0 -12 7 -27 15
-34 19 -16 10 -30 -21 -30 -31 0 -30 -8 4 -56 38 -52 42 -67 23 -81 -13 -9
-15 -26 -12 -79 1 -38 7 -78 12 -91 11 -30 -2 -29 -34 2 -21 21 -25 37 -29 95
-2 48 -9 74 -22 89 -15 17 -17 30 -12 75 11 83 -11 113 -104 147 -32 12 -67
30 -76 40 -9 11 -26 19 -36 19 -24 0 -168 -59 -168 -69 0 -4 -19 -13 -42 -20
-24 -7 -58 -21 -76 -32 -18 -10 -38 -19 -44 -19 -6 0 -19 -7 -29 -16 -21 -19
-73 -21 -94 -4 -19 16 -10 30 21 30 14 0 43 9 64 20 22 11 93 38 158 60 154
51 192 68 192 83 0 28 -70 78 -190 135 -74 36 -130 57 -138 53 -19 -11 -103 9
-133 30 -13 10 -35 4 -110 -26 -103 -42 -330 -153 -390 -191 -34 -21 -69 -24
-69 -5 0 7 186 94 400 188 69 30 128 58 132 61 4 4 -19 23 -51 43 l-58 36 -79
-32 c-43 -17 -128 -51 -189 -75 -60 -25 -128 -55 -150 -67 l-40 -23 58 0 c54
0 57 -1 57 -25 l0 -25 -150 0 -150 0 0 -75 0 -75 140 0 140 0 0 -25 0 -25
-140 0 -140 0 0 -85 0 -85 155 0 155 0 0 -25 0 -25 -185 0 -185 0 0 235 0 235
90 0 c75 0 90 3 90 16 0 8 4 12 10 9 5 -3 40 7 77 23 38 17 125 51 196 78
l127 48 0 38 c0 31 -5 41 -24 49 -30 14 -102 -20 -118 -56 -11 -25 -42 -34
-53 -15 -4 6 -34 -4 -73 -24 -37 -18 -83 -37 -102 -40 -33 -7 -34 -6 -15 9 11
9 31 19 45 22 39 10 130 52 130 60 0 4 -18 56 -41 114 -40 104 -42 107 -67
100 l-27 -7 -3 -122 -3 -122 -24 0 -25 0 0 113 0 113 -72 11 c-66 10 -74 10
-96 -8 -14 -10 -31 -19 -38 -19 -24 0 -16 -18 46 -110 33 -49 60 -92 60 -95 0
-3 -15 -5 -33 -5 -30 0 -36 7 -93 98 l-61 97 -53 3 c-30 2 -64 -2 -77 -9 -21
-11 -23 -19 -23 -101 l0 -88 -30 0 -30 0 0 129 0 129 -35 -12 c-48 -17 -57
-28 -72 -88 -27 -106 -99 -158 -216 -158 -73 0 -127 18 -164 52 l-23 22 -68
-33 c-37 -18 -71 -33 -77 -33 -5 0 -21 -6 -35 -13 -84 -44 -302 -126 -334
-125 -17 1 58 39 203 102 74 32 142 65 151 73 9 8 38 19 65 25 75 16 77 18 60
74 -39 128 0 253 92 304 91 50 216 37 288 -29 l42 -39 61 21 c53 18 62 24 62
45 l0 24 135 0 c138 0 186 -10 226 -46 14 -12 18 -12 28 -1 17 21 -7 38 -149
105 -69 32 -134 69 -145 82 l-20 23 25 -8 c14 -4 34 -15 45 -25 11 -10 31 -21
45 -25 43 -13 183 -89 207 -113 13 -13 34 -22 53 -22 16 0 30 -4 30 -10 0 -5
5 -10 10 -10 6 0 10 11 10 25 0 20 5 25 26 25 23 0 83 21 159 55 17 8 45 17
63 20 18 4 36 13 39 22 3 8 12 12 20 9 8 -3 41 5 73 19 33 14 67 25 77 25 10
-1 -2 -9 -27 -19 -25 -10 -71 -30 -104 -45 -32 -14 -65 -26 -73 -26 -7 0 -49
-14 -93 -31 l-79 -30 18 -47 c17 -43 22 -47 67 -57 27 -6 63 -18 79 -27 64
-33 70 -32 85 13 l14 42 -39 33 c-47 39 -41 55 10 25 38 -22 55 -20 55 5 0 10
12 14 45 14 l45 0 0 -51 c0 -46 4 -55 38 -90 38 -37 123 -79 163 -79 11 0 37
9 59 20 36 18 81 28 68 14 -4 -3 -32 -16 -63 -29 l-57 -23 39 -40 c47 -50 81
-59 147 -42 28 8 79 13 114 11 75 -3 77 4 20 70 -24 26 -70 80 -103 120 -114
135 -129 151 -168 171 -22 11 -63 38 -90 60 -28 21 -63 42 -78 45 -16 3 -26
10 -23 17 7 17 -171 117 -218 124 -25 3 -39 11 -43 23 -4 11 -15 24 -26 29
-20 11 -24 7 -31 -35 -2 -15 -13 -21 -43 -25 -38 -5 -40 -7 -47 -49 -9 -53
-11 -55 -36 -42 -16 8 -18 17 -12 53 3 24 3 56 -1 71 -5 20 -4 27 7 27 8 0 14
10 14 26 0 26 -1 26 -25 -10 -14 -20 -25 -42 -25 -47 0 -22 -44 -4 -50 21 -7
31 -53 58 -58 34 -2 -8 8 -30 23 -49 33 -44 45 -124 21 -144 -14 -11 -20 -9
-44 17 -23 24 -27 37 -24 69 3 34 1 41 -17 46 -12 3 -25 16 -30 29 -9 22 -10
21 -26 -17 -21 -50 -19 -48 -45 -40 l-21 7 20 33 c16 28 18 39 9 74 -11 42
-33 55 -45 25 -4 -10 0 -20 10 -25 14 -8 14 -13 -1 -50 -14 -36 -17 -39 -24
-20 -10 29 -61 29 -82 0 -22 -31 -49 -20 -59 25 -9 37 -10 38 -48 33 -28 -4
-36 -2 -33 8 7 18 -100 29 -145 16 -36 -11 -53 -3 -88 38 -23 26 -14 32 36 25
32 -4 51 -2 55 5 4 6 11 9 16 6 5 -3 12 0 16 6 4 8 3 9 -4 5 -8 -5 -12 0 -12
12 0 11 -6 25 -14 31 -15 12 -96 12 -96 0 0 -16 -100 -59 -191 -84 -50 -13
-142 -45 -205 -70 -118 -48 -184 -65 -184 -48 0 6 16 13 35 16 19 3 57 17 85
31 28 14 102 41 164 61 62 19 147 50 188 68 69 30 74 34 67 55 -9 24 -29 30
-29 8 0 -21 -23 -26 -115 -26 -79 0 -92 3 -197 49 -177 77 -233 94 -334 99
-60 3 -99 0 -113 -8 -23 -12 -241 -24 -336 -19 -66 4 -99 2 -161 -6 -63 -9
-78 7 -32 32 28 15 69 18 295 23 310 6 345 17 203 66 -30 10 -65 28 -76 40
-30 31 -90 60 -165 79 -139 35 -172 47 -158 55 30 19 187 -27 299 -87 l85 -46
50 18 c28 10 96 38 153 63 98 43 102 46 86 64 -30 32 -5 37 37 6 13 -9 27 -7
67 10 73 32 88 26 17 -7 l-59 -27 49 -54 c28 -29 82 -80 120 -113 39 -32 77
-71 86 -85 8 -14 29 -30 47 -34 40 -11 42 -28 2 -28 -28 0 -46 13 -161 116
-33 29 -71 73 -89 103 -9 13 -32 37 -52 53 l-35 29 -112 -50 c-61 -27 -125
-52 -142 -56 -70 -16 10 -64 124 -75 62 -6 110 -19 197 -54 167 -68 180 -74
175 -88 -4 -10 23 -13 118 -14 68 -1 149 -7 180 -14 58 -12 102 -6 91 11 -3 6
-11 8 -18 6 -12 -5 -37 17 -30 27 2 3 -1 2 -7 -3 -17 -14 -85 15 -81 35 3 13
-1 15 -20 10 -50 -16 -68 -18 -68 -8 0 12 24 22 56 22 14 0 34 5 44 10 15 8
22 5 35 -12 12 -18 19 -21 33 -12 20 13 23 55 5 62 -7 2 -13 -4 -13 -13 0 -14
-6 -16 -27 -11 -16 4 -57 10 -93 14 -36 4 -71 11 -77 15 -23 15 -13 38 22 53
22 9 35 21 35 33 0 11 9 21 23 25 32 8 107 7 107 -1 -1 -19 -40 -53 -62 -53
-12 -1 -34 -7 -48 -15 -23 -13 -23 -14 -5 -15 12 0 25 -4 30 -9 6 -5 27 -13
48 -16 30 -6 37 -4 37 8 0 9 20 32 43 52 35 29 43 42 39 61 -2 13 3 35 12 49
9 14 14 30 11 35 -10 16 -33 0 -45 -31 -10 -24 -18 -29 -45 -29 -19 0 -41 -3
-50 -7 -14 -5 -16 -2 -10 17 6 19 4 22 -9 17 -9 -4 -23 -10 -31 -13 -20 -8
-20 20 1 41 9 8 34 25 55 36 l39 19 0 -25 c0 -17 6 -25 17 -25 17 0 83 46 83
58 0 4 -27 16 -61 26 -33 10 -66 25 -74 32 -7 8 -24 14 -38 14 -25 0 -65 35
-54 47 4 3 18 1 33 -5 28 -14 58 -3 72 26 14 26 4 42 -42 63 -125 59 -203 120
-144 112 15 -2 16 1 8 22 -15 41 -40 86 -78 144 -34 51 -37 53 -71 48 -20 -2
-103 -30 -186 -61 -82 -31 -157 -56 -165 -56 -20 0 -137 -47 -164 -66 -11 -8
-31 -14 -45 -14 -39 0 79 55 194 91 55 17 145 48 200 69 55 21 113 41 128 45
15 3 31 13 34 21 17 46 -96 72 -279 64 -77 -3 -279 14 -288 25 -8 10 21 13
137 13 82 0 182 0 223 1 56 0 76 -3 83 -14 4 -8 22 -15 40 -15 19 0 51 -12 77
-30 24 -16 46 -27 48 -25 3 3 -12 23 -33 47 -27 29 -34 43 -25 46 8 3 21 -5
29 -18 9 -13 42 -50 74 -84 55 -58 149 -216 128 -216 -6 0 -14 8 -20 17 -5 10
-13 15 -17 11 -12 -13 64 -115 108 -146 52 -35 73 -43 93 -36 22 9 18 21 -7
27 -12 4 -20 9 -17 11 3 3 27 0 55 -7 37 -9 50 -17 52 -33 3 -21 -14 -32 -60
-38 -27 -4 -32 -13 -17 -30 12 -12 17 -11 41 11 16 15 40 26 57 27 31 1 39 10
21 21 -5 3 -10 15 -10 26 0 12 -7 19 -19 19 -11 0 -23 5 -27 12 -5 8 -2 9 10
5 10 -4 26 -7 37 -7 14 0 19 -7 19 -26 0 -16 5 -24 13 -21 7 2 11 17 9 34 -3
28 -1 30 23 26 15 -3 25 -1 25 6 0 6 -4 11 -10 11 -5 0 -10 5 -10 10 0 6 5 10
11 10 14 0 48 41 49 58 0 7 -11 39 -25 72 -34 80 -33 141 3 211 30 61 44 66
140 54 38 -5 62 -15 84 -34 27 -24 29 -29 17 -54 -15 -32 -29 -35 -29 -6 0 16
-4 19 -21 14 -16 -5 -19 -4 -14 6 6 9 3 10 -11 4 -10 -4 -29 -10 -42 -13 -17
-3 -22 -10 -20 -26 2 -17 9 -20 34 -18 29 3 31 1 27 -22 -4 -17 -14 -27 -34
-31 l-28 -6 16 -35 c16 -33 18 -34 81 -34 57 0 63 2 57 19 -4 15 -1 18 19 14
13 -3 27 0 30 6 4 6 31 11 59 12 29 0 72 4 97 8 44 7 44 7 15 15 -16 4 -63 10
-104 12 -69 3 -109 13 -65 15 51 3 201 -3 219 -8 14 -4 17 -2 10 5 -5 6 -61
16 -123 23 -105 11 -114 10 -134 -7 -21 -19 -21 -19 -14 6 4 14 8 33 7 43 0
22 15 22 46 -3 20 -15 41 -20 92 -20 77 0 130 -13 163 -39 26 -22 21 -33 -16
-33 -15 0 -23 -5 -20 -13 6 -15 -46 -25 -129 -25 -31 0 -65 -4 -75 -9 -9 -5
-25 -12 -35 -15 -30 -10 -14 -30 34 -42 33 -8 45 -16 47 -32 2 -12 -1 -22 -7
-22 -6 0 -11 -9 -11 -20 0 -17 8 -15 77 22 50 27 78 38 81 30 2 -7 19 -12 37
-12 24 0 37 7 49 25 9 14 25 25 35 25 27 0 38 18 54 90 12 51 22 70 49 92 40
33 114 71 188 97 30 11 56 24 58 30 4 12 -70 68 -118 88 -19 8 -51 33 -72 54
-21 21 -44 39 -52 39 -8 0 -17 8 -20 18 -13 39 -94 111 -138 122 -23 6 -54 15
-68 20 -22 7 -20 9 17 9 23 1 54 -4 69 -9 31 -12 70 -6 98 15 21 16 28 7 -143
212 l-84 102 -71 12 c-43 7 -104 9 -158 5 l-88 -7 -40 32 c-38 31 -42 32 -113
26 -76 -5 -116 5 -125 31 -3 11 0 12 16 3 11 -6 35 -11 53 -11 l32 0 -23 25
c-31 33 -99 65 -138 65 -22 0 -32 5 -32 15 0 18 4 18 70 4 30 -6 65 -23 83
-39 18 -15 66 -42 107 -59 41 -18 85 -39 98 -47 17 -11 47 -15 110 -14 48 1
109 -1 136 -6 60 -9 56 5 -12 41 -26 14 -59 33 -73 43 -15 9 -53 32 -85 51
-82 48 -124 81 -124 97 0 19 28 7 73 -33z m-1593 -371 c0 -25 84 -100 172
-154 56 -34 124 -80 152 -102 49 -39 99 -59 177 -72 27 -5 56 -25 110 -75 41
-37 68 -68 61 -69 -7 0 -39 24 -71 54 -32 30 -67 56 -77 59 -11 3 -53 13 -94
23 -64 15 -82 24 -125 64 -27 26 -61 51 -75 55 -96 29 -207 110 -241 176 -23
46 -23 49 -4 49 8 0 15 -4 15 -8z m2570 -43 c0 -13 -17 -19 -63 -23 -24 -2
-64 -15 -89 -30 -27 -16 -52 -24 -62 -20 -9 4 -34 -1 -56 -11 -45 -20 -79 -16
-40 5 14 7 81 32 149 55 114 39 161 46 161 24z m-833 -119 c21 -11 45 -20 53
-21 10 0 7 -4 -7 -11 -17 -8 -30 -6 -59 8 -37 18 -57 44 -35 44 6 0 28 -9 48
-20z m1831 -248 c3 -17 -2 -22 -18 -22 -11 0 -35 -7 -51 -16 -57 -29 -49 11 9
44 43 25 56 24 60 -6z m-259 -158 c-7 -9 -36 -26 -64 -39 -27 -12 -81 -42
-120 -67 -84 -54 -140 -84 -131 -69 10 16 85 66 199 132 104 60 142 74 116 43z
m-1664 -194 c-9 -16 -22 -30 -30 -30 -21 0 -19 10 7 37 30 32 41 29 23 -7z
m-1441 -179 c-17 -10 -41 -22 -55 -26 -13 -4 -60 -25 -103 -46 -44 -22 -89
-39 -101 -39 -13 0 -28 -7 -35 -15 -7 -8 -21 -15 -32 -15 -10 0 -51 -16 -91
-35 -78 -38 -108 -45 -88 -21 6 8 35 23 64 35 29 12 64 28 78 36 15 8 57 22
94 30 71 17 118 37 147 63 19 16 112 51 138 52 8 0 1 -8 -16 -19z m1161 -22
c5 -6 2 -9 -8 -9 -9 0 -20 -7 -25 -16 -8 -14 -11 -14 -26 7 -26 38 -21 50 17
37 17 -6 36 -15 42 -19z m-156 -6 c46 -30 46 -53 0 -26 -30 18 -31 17 -49 -4
-20 -25 -30 -21 -30 12 0 20 17 45 31 45 4 0 25 -12 48 -27z m2409 -3 c3 -24
-7 -30 -145 -91 -81 -37 -238 -107 -348 -157 -110 -49 -211 -93 -225 -97 -23
-6 -23 -5 5 14 17 12 38 21 48 21 10 0 33 11 50 24 46 34 109 64 191 91 40 13
95 37 122 53 27 16 84 49 127 72 42 24 92 56 110 72 38 33 61 32 65 -2z
m-2523 -130 c4 -6 -7 -10 -24 -10 -17 0 -31 5 -31 10 0 6 11 10 24 10 14 0 28
-4 31 -10z m38 -397 c-7 -2 -21 -2 -30 0 -10 3 -4 5 12 5 17 0 24 -2 18 -5z
m2365 -85 c-2 -7 -51 -37 -109 -66 -57 -30 -121 -67 -141 -83 -20 -16 -45 -29
-54 -29 -9 0 -56 -18 -103 -39 -109 -50 -135 -57 -129 -40 4 13 21 21 170 76
37 14 84 40 105 57 56 47 216 132 256 135 5 1 7 -5 5 -11z m-3768 -82 c0 -19
-24 -37 -64 -46 -27 -6 -36 -4 -41 8 -7 18 -7 18 35 36 44 19 70 20 70 2z
m3858 -274 c5 -15 -51 -49 -103 -63 -22 -6 -54 -18 -70 -28 -17 -10 -47 -20
-67 -24 -21 -3 -70 -21 -110 -40 -87 -42 -240 -90 -265 -84 -15 3 -14 5 7 14
14 6 52 18 85 26 91 23 438 168 480 201 22 17 37 16 43 -2z m-2067 -61 c-13
-10 -40 -24 -60 -31 -20 -7 -134 -60 -254 -118 -120 -57 -221 -101 -224 -98
-4 3 45 30 108 60 63 30 146 72 184 95 39 23 99 50 135 61 36 11 76 27 90 35
35 20 50 18 21 -4z m-1262 -277 c26 -15 68 -71 59 -79 -1 -2 -14 -4 -28 -6
-17 -2 -35 7 -57 29 -29 29 -37 32 -96 32 -77 0 -117 -24 -117 -70 0 -39 35
-64 118 -85 l68 -16 100 39 c54 21 129 49 167 62 49 18 67 28 67 42 0 16 -9
18 -80 18 -79 0 -80 0 -80 25 l0 25 195 0 195 0 0 -25 c0 -25 -1 -25 -82 -26
-46 -1 -75 -3 -65 -6 21 -6 22 -19 2 -27 -11 -4 -15 -23 -15 -77 l0 -71 46 26
c58 33 86 35 59 6 -10 -11 -28 -20 -39 -20 -12 0 -32 -7 -44 -16 -20 -14 -22
-23 -22 -125 l0 -109 -35 0 -35 0 0 90 c0 50 -1 90 -3 90 -2 0 -43 -18 -92
-39 -51 -23 -106 -55 -127 -76 -20 -19 -51 -42 -70 -50 -18 -9 -40 -19 -48
-24 -44 -26 -152 -72 -202 -85 -31 -9 -87 -30 -125 -47 -79 -35 -155 -48 -178
-29 -23 19 -10 28 42 28 52 0 372 99 408 126 19 14 16 15 -34 16 -67 0 -130
29 -154 70 -35 58 12 69 65 16 80 -80 255 -47 246 46 -4 46 -46 73 -112 73
-43 0 -71 -9 -147 -46 -52 -26 -105 -50 -119 -54 -24 -8 -24 -7 5 17 17 13 69
39 118 58 48 18 87 36 87 39 0 4 -23 14 -51 24 -79 28 -110 98 -74 167 26 51
85 71 187 65 39 -2 80 -11 97 -21z m-419 -368 c-14 -7 -36 -16 -50 -20 -14 -3
-7 3 15 13 45 22 73 27 35 7z m444 -236 c-15 -15 -74 -30 -74 -19 0 5 12 11
28 15 15 3 32 7 37 9 18 6 19 5 9 -5z m142 -200 c35 -91 66 -178 70 -193 3
-16 9 -25 13 -20 4 4 38 92 76 196 l70 187 42 0 43 0 0 -235 0 -235 -30 0 -30
0 -1 203 c0 180 -2 198 -13 162 -11 -31 -85 -228 -132 -348 -4 -11 -15 -17
-28 -15 -17 2 -32 33 -86 174 -36 93 -70 183 -76 200 -10 23 -12 -10 -13 -173
l-1 -203 -25 0 -25 0 0 236 0 235 41 -3 41 -3 64 -165z m713 -57 c50 -126 91
-231 91 -235 0 -5 -13 -8 -29 -8 -26 0 -31 6 -54 68 l-25 67 -110 3 -110 3
-28 -71 c-25 -64 -30 -70 -56 -70 -15 0 -28 3 -28 8 0 4 41 109 92 235 l92
227 37 0 37 0 91 -227z m471 208 c0 -10 -65 -103 -145 -207 l-145 -189 150 -3
150 -3 0 -24 0 -25 -185 0 -185 0 0 25 c0 18 45 83 141 208 l141 182 -131 3
-131 3 0 24 0 25 170 0 c160 0 170 -1 170 -19z"/>
<path d="M3221 4037 c-14 -6 -26 -17 -28 -23 -6 -18 36 -62 98 -105 32 -22 59
-47 59 -55 0 -8 4 -13 8 -10 5 3 25 -15 46 -39 35 -43 76 -60 76 -32 0 14 -62
92 -131 164 -22 24 -49 59 -60 78 -23 38 -32 41 -68 22z"/>
<path d="M3330 3986 c0 -2 7 -9 15 -16 12 -10 15 -10 15 4 0 9 -7 16 -15 16
-8 0 -15 -2 -15 -4z"/>
<path d="M3540 3731 c13 -25 33 -28 28 -4 -2 10 -11 19 -21 21 -16 3 -17 1 -7
-17z"/>
<path d="M3580 3684 c18 -21 50 -37 50 -25 0 15 -30 41 -47 41 -13 0 -13 -3
-3 -16z"/>
<path d="M3505 3670 c-9 -10 -21 -18 -25 -17 -4 1 -37 -11 -74 -28 -49 -23
-66 -35 -66 -50 0 -11 -25 -47 -56 -80 -55 -59 -56 -61 -58 -122 l-2 -63 48 0
c27 0 61 -6 76 -14 15 -7 43 -16 63 -20 37 -7 68 -31 55 -43 -13 -13 -147 -3
-171 13 -34 22 -48 9 -42 -37 l5 -39 -38 0 c-21 0 -43 7 -50 15 -7 8 -21 15
-32 15 -11 0 -16 5 -13 11 4 6 19 7 36 4 17 -4 29 -2 29 4 0 5 -10 12 -22 14
-15 3 -9 5 14 6 46 1 73 35 35 45 -12 3 -39 1 -59 -3 -32 -8 -38 -6 -43 10 -7
22 -19 23 -64 8 -34 -12 -40 -26 -13 -31 11 -2 13 -6 5 -11 -16 -10 -47 23
-34 36 15 15 14 27 -3 27 -23 0 -37 -24 -23 -39 9 -11 9 -14 0 -18 -24 -9 -13
-22 25 -28 79 -13 92 -17 87 -25 -3 -5 -20 -4 -38 1 -42 12 -80 12 -72 -1 3
-5 19 -10 35 -10 46 0 80 -20 80 -47 0 -19 5 -23 33 -23 34 0 65 -14 51 -23
-14 -8 -154 5 -154 14 0 5 7 9 15 9 9 0 12 6 9 15 -9 22 -22 19 -53 -12 -35
-35 -79 -59 -88 -49 -5 5 3 15 16 25 43 30 72 61 66 71 -11 18 -61 11 -107
-15 l-45 -25 -26 20 c-33 26 -57 26 -57 -1 0 -14 -5 -19 -14 -16 -10 4 -13 1
-10 -8 4 -9 -14 -18 -63 -31 -65 -16 -70 -20 -82 -53 -25 -73 -25 -72 -2 -78
11 -3 21 -11 21 -19 0 -10 -11 -8 -46 7 -25 12 -48 18 -51 15 -9 -9 48 -55 83
-68 24 -8 34 -19 36 -37 2 -16 8 -25 16 -23 8 1 12 -3 10 -10 -7 -21 -32 -15
-38 10 -5 23 -54 62 -77 62 -7 0 -13 -9 -13 -19 0 -10 -6 -21 -13 -24 -23 -9
-77 -99 -77 -128 0 -21 4 -27 15 -23 8 4 15 1 15 -5 0 -6 -6 -11 -14 -11 -8 0
-17 -12 -20 -26 -5 -20 -12 -25 -27 -21 -15 4 -19 2 -15 -8 8 -21 -16 -74 -37
-81 -33 -10 -12 -29 36 -32 41 -3 47 -6 47 -26 0 -23 29 -71 30 -48 0 6 11 12
25 12 29 0 34 24 8 39 -15 8 -11 10 18 11 31 0 36 3 35 23 -1 12 5 27 14 34 8
7 10 13 4 13 -7 0 -14 9 -17 20 -4 17 -9 18 -36 9 l-32 -11 22 -19 21 -18 -26
-7 c-14 -3 -32 -1 -39 4 -8 7 -18 7 -27 2 -21 -14 -52 -12 -48 2 2 6 13 16 23
22 29 17 53 49 48 64 -3 7 4 23 16 36 14 15 19 29 15 41 -5 11 -4 16 3 12 14
-9 45 61 38 84 -8 25 19 54 33 36 14 -18 32 -110 25 -135 -3 -13 -1 -22 6 -22
6 0 10 3 9 8 0 4 1 14 5 22 3 8 8 22 10 30 3 8 6 2 6 -15 1 -16 8 -49 16 -72
8 -23 12 -49 9 -57 -9 -24 -34 -6 -34 26 0 17 -4 27 -10 23 -5 -3 -10 -15 -10
-26 0 -11 -4 -17 -10 -14 -5 3 -10 24 -10 46 0 32 -3 39 -20 39 -32 0 -26 -49
12 -98 32 -41 78 -58 78 -29 0 9 3 8 9 -2 5 -7 15 -11 22 -9 31 10 -16 208
-49 208 -15 1 -15 2 -2 9 8 5 27 11 43 15 25 6 27 5 15 -13 -7 -11 -9 -23 -5
-27 9 -10 13 -5 21 29 4 19 3 27 -7 27 -15 0 -61 49 -54 57 5 4 54 -18 132
-59 17 -9 44 -20 60 -25 26 -7 30 -14 31 -43 0 -29 4 -34 20 -32 27 5 28 9 10
27 -19 20 -21 29 -3 19 47 -28 80 -63 102 -110 19 -40 49 -74 118 -136 100
-89 247 -196 247 -179 0 5 -23 34 -51 65 -48 53 -50 57 -40 91 9 33 8 35 -15
35 -13 0 -24 -5 -24 -11 0 -5 5 -7 10 -4 6 3 10 -3 10 -14 0 -13 -7 -21 -17
-21 -19 0 -133 118 -133 137 0 7 -13 19 -30 28 -28 15 -90 105 -90 133 0 17
30 15 52 -5 10 -9 21 -13 25 -10 4 4 -2 13 -12 21 -18 13 -17 14 6 30 14 9 56
23 94 33 47 12 69 22 72 34 5 17 7 17 29 2 39 -25 41 -6 5 30 -25 24 -35 28
-39 18 -10 -28 -51 -61 -67 -55 -9 4 -26 2 -38 -4 -49 -25 -130 -50 -143 -45
-10 4 -14 -4 -14 -28 l0 -33 -27 26 c-16 15 -48 38 -73 52 -30 17 -48 36 -57
58 l-11 33 -2 -30 c-2 -26 -4 -23 -14 18 -11 49 -11 49 -30 28 -11 -12 -14
-21 -8 -21 7 0 12 -11 12 -25 0 -29 -6 -31 -26 -10 -8 8 -32 19 -53 25 -32 8
-38 14 -34 30 3 11 9 23 14 26 17 10 9 22 -12 17 -37 -10 -17 19 41 60 55 38
82 48 60 22 -20 -24 -5 -29 57 -16 52 10 63 9 98 -9 64 -33 99 -35 150 -10 49
24 116 24 139 0 8 -9 6 -11 -11 -5 -32 9 -29 -6 8 -41 30 -29 31 -29 45 -9 13
18 13 20 0 23 -22 5 -20 18 9 69 28 46 85 86 85 59 0 -11 28 -3 109 33 59 26
119 55 131 64 l23 16 -28 23 c-62 51 -96 88 -90 98 12 19 25 10 42 -27 24 -51
73 -76 135 -69 60 6 88 21 88 46 0 11 -14 49 -31 85 -16 35 -29 70 -28 77 4
30 -3 47 -31 84 -41 53 -94 113 -101 114 -3 0 -14 -9 -24 -20z m-366 -426 c2
-2 -7 -4 -22 -4 -14 0 -29 5 -32 10 -6 10 42 4 54 -6z m-329 -123 c0 -10 -42
-23 -49 -15 -7 6 20 24 37 24 6 0 12 -4 12 -9z"/>
<path d="M2606 3613 c-11 -11 -6 -23 9 -23 8 0 15 4 15 9 0 13 -16 22 -24 14z"/>
<path d="M2561 3592 c-7 -13 -4 -24 10 -42 l19 -25 -2 43 c-1 45 -11 54 -27
24z"/>
<path d="M2535 3530 c3 -5 8 -10 11 -10 2 0 4 5 4 10 0 6 -5 10 -11 10 -5 0
-7 -4 -4 -10z"/>
<path d="M1981 3490 c12 -21 28 -41 36 -44 18 -7 17 -1 -13 44 -34 52 -52 52
-23 0z"/>
<path d="M2625 3490 c4 -6 11 -8 16 -5 14 9 11 15 -7 15 -8 0 -12 -5 -9 -10z"/>
<path d="M3695 3458 c9 -41 23 -68 35 -68 6 0 6 9 0 23 -5 12 -11 34 -14 50
-4 15 -11 27 -17 27 -7 0 -8 -12 -4 -32z"/>
<path d="M2537 3427 c-11 -30 -9 -34 23 -39 27 -4 30 -2 29 21 0 14 -3 20 -6
14 -7 -19 -31 -16 -35 5 -3 16 -4 16 -11 -1z"/>
<path d="M2600 3385 c-6 -16 -14 -23 -25 -19 -23 9 -18 -14 6 -26 25 -14 25
-14 33 33 8 42 0 49 -14 12z"/>
<path d="M2631 3373 c1 -10 0 -21 -1 -25 -4 -13 -7 -27 -9 -38 -2 -16 -29 -12
-39 6 -6 11 -12 13 -16 6 -4 -6 7 -26 23 -44 28 -30 30 -31 31 -11 0 16 5 20
20 16 15 -4 22 2 30 22 14 37 13 44 -9 38 -15 -4 -18 0 -14 21 3 16 1 26 -6
26 -7 0 -11 -8 -10 -17z m29 -63 c0 -5 -4 -10 -10 -10 -5 0 -10 5 -10 10 0 6
5 10 10 10 6 0 10 -4 10 -10z"/>
<path d="M2724 3335 c4 -16 2 -25 -5 -25 -8 0 -7 -5 2 -16 12 -14 14 -14 21 6
4 12 3 30 -2 41 -15 27 -23 24 -16 -6z"/>
<path d="M3127 3353 c-13 -12 -7 -23 13 -23 11 0 20 7 20 15 0 15 -21 21 -33
8z"/>
<path d="M2670 3281 c-13 -25 -13 -61 0 -61 6 0 10 11 10 25 0 15 6 25 15 25
9 0 12 6 9 15 -8 21 -21 19 -34 -4z"/>
<path d="M2804 3285 c7 -20 -22 -34 -61 -28 -34 5 -45 -11 -22 -34 8 -8 8 -13
0 -17 -6 -4 -11 -3 -11 3 0 7 -9 7 -25 -1 -19 -8 -22 -14 -13 -20 18 -11 81 1
95 19 6 8 17 12 23 8 6 -3 10 -3 9 2 -3 18 2 32 17 47 16 16 11 36 -8 36 -5 0
-8 -7 -4 -15z"/>
<path d="M3672 3281 c-24 -10 -44 -22 -44 -27 0 -5 16 -17 36 -27 20 -10 39
-24 42 -32 4 -8 13 -15 21 -15 12 0 14 6 8 28 -4 15 -8 42 -8 60 0 17 -3 32
-6 31 -3 -1 -25 -9 -49 -18z"/>
<path d="M2542 3270 c2 -13 13 -26 26 -31 19 -7 23 -6 20 7 -2 9 -14 24 -26
32 -23 15 -24 15 -20 -8z"/>
<path d="M2908 3242 c-21 -13 -38 -31 -38 -39 0 -8 3 -13 8 -11 4 2 24 12 45
21 38 18 42 24 29 43 -5 8 -19 3 -44 -14z"/>
<path d="M3350 3266 c0 -2 7 -6 15 -10 8 -3 15 -1 15 4 0 6 -7 10 -15 10 -8 0
-15 -2 -15 -4z"/>
<path d="M2834 3236 c-22 -17 -11 -35 13 -20 19 12 29 34 16 34 -5 0 -18 -6
-29 -14z"/>
<path d="M3525 3210 c-27 -16 -85 -44 -127 -62 -53 -21 -78 -37 -78 -48 0 -9
-11 -27 -25 -40 -34 -32 -32 -50 5 -50 17 0 30 -5 30 -11 0 -6 -7 -9 -15 -6
-25 10 -25 -9 0 -33 20 -19 27 -21 39 -11 37 31 161 4 211 -46 19 -19 35 -37
35 -39 0 -3 -39 -2 -88 2 -74 6 -90 4 -101 -10 -11 -14 -11 -16 3 -16 13 0 15
-4 6 -19 -5 -11 -10 -33 -10 -50 0 -16 -5 -33 -10 -36 -6 -4 -8 -11 -4 -16 3
-5 10 -7 15 -4 10 7 25 -24 67 -135 30 -82 29 -81 115 -65 20 4 37 4 36 -1 0
-13 -101 -84 -120 -84 -11 0 -15 8 -13 33 2 17 1 23 -2 12 -10 -34 -33 -52
-74 -59 -66 -10 -51 -46 38 -92 24 -12 26 6 4 36 -24 32 -27 40 -13 40 20 0
61 -54 61 -81 0 -34 -4 -35 -71 -9 -28 12 -56 19 -61 18 -17 -6 23 -47 52 -53
17 -4 57 -31 89 -61 32 -30 61 -54 64 -54 2 0 24 -18 48 -41 24 -22 56 -48 70
-57 14 -10 26 -21 25 -27 -1 -5 47 -48 106 -95 114 -91 158 -139 187 -204 10
-23 25 -47 34 -55 10 -7 17 -20 17 -27 0 -8 8 -14 18 -14 12 0 14 -2 4 -8 -16
-10 -8 -35 26 -80 l24 -34 18 39 c15 34 15 41 2 61 -8 12 -20 22 -27 22 -7 0
-15 12 -18 28 -3 15 -32 59 -64 97 -32 39 -78 96 -102 128 -24 31 -47 57 -51
57 -4 0 -37 27 -75 60 -37 33 -75 62 -85 65 -17 5 -110 92 -110 103 0 2 -16
22 -34 43 -26 28 -38 54 -48 98 -7 37 -17 61 -25 61 -7 0 -13 9 -13 20 0 13 5
18 15 14 8 -4 15 -10 15 -14 0 -4 21 -13 47 -20 25 -8 86 -40 136 -72 76 -50
94 -58 121 -53 25 5 28 4 13 -5 -17 -11 -16 -13 3 -37 21 -28 26 -53 10 -53
-5 0 -10 -4 -10 -10 0 -8 57 -3 69 6 6 5 3 71 -4 93 -5 16 -12 20 -28 16 -18
-5 -17 -3 4 9 31 18 41 37 28 57 -5 8 -9 69 -9 136 0 67 -4 124 -9 128 -5 3
-7 20 -4 39 5 32 3 34 -68 79 -40 26 -80 47 -90 47 -9 0 -24 11 -33 25 -15 23
-15 25 1 25 10 0 43 -16 73 -35 30 -19 58 -35 62 -35 14 0 8 28 -18 87 -14 32
-27 74 -29 93 -3 49 -60 190 -96 240 -27 37 -94 80 -124 79 -5 0 -32 -13 -60
-29z"/>
<path d="M2515 3220 c3 -5 20 -10 36 -10 18 0 28 4 24 10 -3 6 -20 10 -36 10
-18 0 -28 -4 -24 -10z"/>
<path d="M2594 3211 c10 -16 56 -20 56 -5 0 9 -11 14 -31 14 -16 0 -28 -4 -25
-9z"/>
<path d="M2507 3193 c-10 -10 -8 -51 3 -58 15 -9 60 6 60 20 0 29 -46 56 -63
38z"/>
<path d="M2450 3141 c0 -10 7 -24 15 -31 8 -7 13 -16 10 -20 -6 -10 23 -35 31
-27 3 3 2 12 -2 19 -5 7 -9 24 -9 38 0 15 -5 24 -12 23 -7 -2 -13 2 -13 7 0 6
-4 10 -10 10 -5 0 -10 -8 -10 -19z"/>
<path d="M2645 3151 c-25 -4 -41 -12 -43 -22 -2 -13 4 -15 40 -9 48 7 68 16
68 31 0 10 -3 10 -65 0z"/>
<path d="M3832 3143 c-5 -10 -15 -35 -22 -57 -13 -39 -5 -55 27 -56 14 0 33
53 33 96 0 38 -23 47 -38 17z"/>
<path d="M2557 3116 c-3 -8 0 -17 8 -19 15 -7 25 1 25 20 0 17 -26 17 -33 -1z"/>
<path d="M2336 3088 c-23 -21 -24 -20 34 -41 57 -21 70 -21 70 -1 0 8 -4 13
-9 9 -6 -3 -13 0 -18 8 -4 7 -19 20 -33 28 -23 15 -26 14 -44 -3z"/>
<path d="M3257 3092 c-18 -20 -22 -42 -9 -42 10 0 52 43 52 53 0 14 -27 7 -43
-11z"/>
<path d="M2425 3080 c3 -5 8 -10 11 -10 2 0 4 5 4 10 0 6 -5 10 -11 10 -5 0
-7 -4 -4 -10z"/>
<path d="M2543 3068 c-25 -12 -38 -49 -20 -60 18 -12 21 -10 35 20 29 58 28
61 -15 40z"/>
<path d="M2285 3049 c-4 -12 -5 -22 -3 -24 6 -5 152 -45 155 -41 7 7 -36 36
-89 59 -56 25 -57 25 -63 6z"/>
<path d="M2467 3053 c-3 -5 1 -14 9 -21 12 -10 14 -10 14 2 0 17 -16 30 -23
19z"/>
<path d="M2703 3034 c-13 -3 -20 -11 -17 -18 3 -7 -2 -19 -11 -26 -18 -15 -20
-40 -2 -40 6 0 29 14 51 30 35 27 40 28 60 15 11 -8 35 -15 52 -15 56 0 93
-11 87 -26 -7 -19 11 -18 27 1 10 12 10 15 0 15 -9 0 -8 6 4 19 17 19 17 20
-6 32 -23 12 -203 22 -245 13z"/>
<path d="M3028 3021 c-22 -21 -23 -51 -4 -51 15 0 56 45 56 61 0 15 -34 9 -52
-10z"/>
<path d="M3125 2980 c3 -5 8 -10 11 -10 2 0 4 5 4 10 0 6 -5 10 -11 10 -5 0
-7 -4 -4 -10z"/>
<path d="M3026 2950 c-16 -17 -26 -33 -24 -35 3 -3 35 2 72 11 64 16 66 18 50
35 -26 28 -65 24 -98 -11z"/>
<path d="M3240 2966 c0 -8 12 -24 28 -36 25 -20 27 -21 31 -4 2 10 -7 26 -19
36 -27 22 -40 23 -40 4z"/>
<path d="M2377 2963 c-4 -3 -7 -15 -7 -25 0 -13 8 -18 28 -19 23 -2 24 -2 5
-6 -27 -5 -28 -11 -6 -35 15 -17 15 -18 1 -13 -19 7 -38 -21 -38 -56 0 -18 2
-20 16 -8 13 11 14 9 9 -13 -5 -18 -2 -27 9 -31 18 -7 21 -3 30 44 3 20 22 54
41 76 42 49 43 57 10 51 -32 -7 -43 9 -19 27 18 14 18 14 -3 15 -13 0 -23 -5
-23 -12 0 -9 -3 -9 -12 0 -13 13 -31 16 -41 5z"/>
<path d="M2800 2956 c0 -7 6 -19 14 -25 11 -9 15 -8 20 5 3 9 4 20 0 25 -8 14
-34 11 -34 -5z"/>
<path d="M2860 2950 c0 -5 7 -10 15 -10 8 0 15 5 15 10 0 6 -7 10 -15 10 -8 0
-15 -4 -15 -10z"/>
<path d="M3354 2913 c-15 -16 -23 -35 -20 -45 3 -13 -5 -22 -27 -32 -18 -7
-41 -23 -52 -35 -16 -19 -17 -24 -5 -31 25 -16 55 -11 90 13 41 27 51 48 19
40 -17 -5 -12 4 23 41 40 41 49 46 89 46 41 1 43 2 25 15 -11 9 -41 15 -68 15
-40 0 -53 -5 -74 -27z"/>
<path d="M2888 2923 c-48 -7 -53 -28 -15 -57 19 -14 39 -26 44 -26 16 0 24 28
10 34 -7 2 0 5 14 5 22 1 26 5 21 26 -4 26 -12 27 -74 18z"/>
<path d="M2726 2811 c-6 -9 31 -48 38 -40 2 2 0 14 -5 27 -9 23 -24 29 -33 13z"/>
<path d="M3137 2794 c-16 -13 -35 -24 -43 -24 -8 0 -14 -5 -14 -11 0 -6 -10
-19 -22 -29 -27 -21 -16 -40 12 -22 11 7 30 18 42 25 24 13 32 18 67 46 24 18
24 19 5 29 -15 8 -25 5 -47 -14z"/>
<path d="M2722 2760 c0 -14 2 -19 5 -12 2 6 2 18 0 25 -3 6 -5 1 -5 -13z"/>
<path d="M3211 2760 c-10 -5 -8 -9 4 -14 23 -8 35 -8 35 3 0 13 -25 20 -39 11z"/>
<path d="M3352 2741 c-1 -28 1 -30 15 -15 14 14 14 17 1 30 -13 14 -15 12 -16
-15z"/>
<path d="M2810 2750 c0 -5 -13 -7 -28 -4 -26 5 -31 2 -50 -34 -18 -35 -19 -41
-6 -46 23 -9 24 -9 40 29 8 19 21 35 29 35 20 0 19 -12 -6 -55 -21 -35 -21
-36 -3 -50 15 -11 21 -12 29 -1 18 23 35 8 23 -19 -6 -14 -15 -22 -20 -19 -6
4 -8 -2 -6 -12 2 -15 11 -19 38 -17 34 2 34 1 5 -5 -18 -4 -31 -15 -33 -26 -3
-14 0 -17 13 -12 9 3 25 6 35 6 31 0 30 37 -3 97 -23 42 -30 68 -28 100 1 33
-2 43 -14 43 -8 0 -15 -4 -15 -10z"/>
<path d="M2311 2734 c0 -11 3 -14 6 -6 3 7 2 16 -1 19 -3 4 -6 -2 -5 -13z"/>
<path d="M2343 2715 c-7 -8 -13 -37 -13 -65 0 -43 3 -50 20 -50 23 0 23 0 11
33 -8 19 -6 27 5 31 17 7 19 66 2 66 -7 -1 -19 -7 -25 -15z"/>
<path d="M3130 2715 c-10 -12 -10 -15 3 -15 8 0 17 7 21 15 3 8 2 15 -3 15 -5
0 -14 -7 -21 -15z"/>
<path d="M3247 2712 c-27 -30 -22 -52 12 -49 21 1 31 9 39 30 6 15 7 27 2 27
-5 0 -15 2 -22 5 -8 3 -22 -3 -31 -13z"/>
<path d="M2868 2675 c-6 -30 4 -38 52 -41 19 -1 39 -3 43 -3 4 -1 13 -15 19
-32 7 -20 13 -27 18 -19 6 9 11 7 18 -6 6 -10 13 -16 16 -13 3 3 -13 31 -34
63 -31 46 -41 55 -46 41 -6 -13 -9 -14 -16 -3 -7 10 -11 10 -15 1 -6 -17 -23
-16 -23 1 0 7 -6 19 -14 25 -11 9 -15 6 -18 -14z"/>
<path d="M1565 2680 c3 -5 15 -10 26 -10 10 0 19 5 19 10 0 6 -12 10 -26 10
-14 0 -23 -4 -19 -10z"/>
<path d="M2500 2674 c0 -17 22 -14 28 4 2 7 -3 12 -12 12 -9 0 -16 -7 -16 -16z"/>
<path d="M3317 2673 c-4 -3 -7 -16 -7 -27 1 -20 1 -20 11 -2 9 15 13 16 20 5
5 -8 9 -22 9 -32 0 -14 -5 -17 -22 -12 -17 6 -20 4 -15 -10 4 -9 7 -23 7 -31
0 -16 56 -47 70 -39 15 9 12 39 -11 100 -19 52 -41 69 -62 48z"/>
<path d="M3170 2653 c0 -5 10 -21 23 -37 l23 -29 -4 37 c-3 27 -9 36 -23 36
-10 0 -19 -3 -19 -7z"/>
<path d="M2727 2623 c-4 -3 -7 -21 -7 -39 0 -18 -4 -36 -10 -39 -5 -3 -10 -1
-10 4 0 6 -5 11 -11 11 -15 0 -1 -62 17 -76 8 -6 14 -19 14 -28 0 -20 19 -21
27 -1 3 9 -3 25 -13 37 -14 15 -16 22 -6 25 6 3 12 11 12 19 0 8 6 11 15 8 9
-4 19 3 26 20 10 22 9 29 -6 46 -18 20 -36 25 -48 13z"/>
<path d="M3950 2593 c0 -23 5 -45 10 -48 13 -8 13 55 0 75 -7 11 -10 4 -10
-27z"/>
<path d="M3430 2567 c7 -51 16 -67 36 -67 18 0 18 24 0 39 -7 6 -16 25 -20 41
-9 47 -24 35 -16 -13z"/>
<path d="M2947 2584 c-4 -4 -7 -14 -7 -23 0 -11 3 -12 11 -4 6 6 10 16 7 23
-2 6 -7 8 -11 4z"/>
<path d="M2616 2533 c10 -41 13 -44 37 -37 12 3 24 8 25 10 9 7 -35 53 -51 54
-14 0 -16 -5 -11 -27z"/>
<path d="M2576 2521 c-4 -7 -5 -15 -2 -18 9 -9 19 4 14 18 -4 11 -6 11 -12 0z"/>
<path d="M2968 2506 c-10 -7 -18 -20 -18 -28 0 -8 -5 -19 -12 -26 -6 -6 -9
-15 -5 -19 10 -10 61 31 65 52 5 25 -10 36 -30 21z"/>
<path d="M3046 2483 c-8 -53 -7 -73 4 -73 9 0 30 62 30 93 0 34 -27 17 -34
-20z"/>
<path d="M2860 2496 c0 -7 -7 -19 -15 -26 -19 -16 -19 -40 0 -40 19 0 49 46
41 65 -7 19 -26 20 -26 1z"/>
<path d="M3310 2501 c-23 -6 -37 -42 -16 -40 5 0 13 -5 18 -13 8 -10 11 -10
15 0 8 20 23 3 23 -26 1 -23 2 -25 11 -9 5 9 20 17 33 17 23 0 46 33 46 65 0
21 -24 14 -30 -8 -3 -10 -8 -18 -12 -18 -5 1 -20 1 -35 1 -20 0 -24 3 -14 9 7
5 10 14 7 20 -8 12 -10 12 -46 2z"/>
<path d="M2785 2477 c-4 -10 -5 -21 -1 -24 10 -10 18 4 13 24 -4 17 -4 17 -12
0z"/>
<path d="M2636 2471 c-4 -6 -4 -21 -1 -32 5 -15 4 -19 -4 -15 -6 4 -11 13 -11
21 0 8 -5 17 -11 21 -7 4 -9 0 -5 -13 9 -27 -4 -60 -15 -42 -10 16 -14 12 -23
-23 -6 -25 -4 -28 18 -28 13 0 39 12 56 27 31 26 33 26 46 8 18 -24 23 -18 17
23 -3 20 -11 32 -21 32 -8 0 -20 7 -27 17 -8 11 -14 13 -19 4z"/>
<path d="M3950 2443 c0 -48 9 -83 22 -83 14 0 5 113 -9 118 -9 2 -13 -8 -13
-35z"/>
<path d="M2895 2460 c3 -5 8 -10 11 -10 2 0 4 5 4 10 0 6 -5 10 -11 10 -5 0
-7 -4 -4 -10z"/>
<path d="M2420 2430 c0 -15 7 -20 25 -20 30 0 33 15 6 30 -27 14 -31 13 -31
-10z"/>
<path d="M2480 2441 c0 -5 6 -14 14 -20 10 -9 15 -8 19 3 3 8 -1 17 -9 20 -21
8 -24 8 -24 -3z"/>
<path d="M2807 2436 c-4 -10 -5 -21 -2 -24 9 -9 17 6 13 25 -3 17 -4 17 -11
-1z"/>
<path d="M3126 2415 c4 -8 10 -15 15 -15 5 0 9 7 9 15 0 8 -7 15 -15 15 -9 0
-12 -6 -9 -15z"/>
<path d="M2890 2400 c0 -5 5 -10 10 -10 6 0 10 5 10 10 0 6 -4 10 -10 10 -5 0
-10 -4 -10 -10z"/>
<path d="M2963 2399 c-11 -11 14 -79 29 -79 17 0 19 29 3 59 -18 35 -17 35
-32 20z"/>
<path d="M3163 2370 c-3 -45 2 -48 36 -19 20 16 23 24 14 37 -5 9 -19 18 -29
20 -16 2 -19 -4 -21 -38z"/>
<path d="M3260 2336 c0 -30 24 -56 53 -56 12 0 49 -18 82 -40 33 -22 66 -40
74 -40 7 0 24 -11 37 -25 13 -14 29 -25 35 -25 28 0 -61 74 -129 108 -41 19
-81 45 -91 56 -9 12 -27 27 -39 34 -20 11 -22 10 -22 -12z"/>
<path d="M3580 2316 c0 -58 50 -116 99 -116 19 0 22 -3 13 -12 -7 -7 -12 -15
-12 -20 0 -4 36 -34 79 -67 44 -34 95 -78 115 -98 19 -21 38 -34 42 -30 4 3
-2 28 -13 54 -18 44 -22 48 -51 45 -18 -2 -32 1 -32 7 0 6 9 11 20 11 26 0 25
5 -10 50 -33 41 -93 75 -113 64 -9 -6 -8 -3 1 8 11 14 7 21 -35 49 -26 17 -60
43 -75 57 l-28 26 0 -28z"/>
<path d="M3093 2316 c-17 -8 -21 -16 -17 -31 9 -28 9 -28 43 -20 35 7 40 25
14 47 -14 11 -23 12 -40 4z"/>
<path d="M3665 2300 c39 -26 53 -26 30 0 -10 11 -28 20 -39 20 -18 0 -17 -3 9
-20z"/>
<path d="M3960 2230 c0 -5 5 -10 10 -10 6 0 10 5 10 10 0 6 -4 10 -10 10 -5 0
-10 -4 -10 -10z"/>
<path d="M3964 2137 c-3 -10 -3 -28 0 -42 8 -31 -2 -54 -15 -34 -18 29 -22 -4
-6 -49 10 -27 15 -55 12 -63 -6 -16 76 -134 100 -143 20 -7 19 -1 -10 48 -19
33 -29 71 -40 161 -14 116 -28 156 -41 122z"/>
<path d="M2060 1898 c-54 -28 -80 -69 -87 -140 -5 -50 7 -117 25 -145 6 -10
46 3 161 49 l153 61 -4 49 c-3 27 -7 51 -10 54 -5 4 -163 -47 -220 -71 -11 -4
-18 -3 -18 4 0 13 14 19 133 57 48 15 87 30 87 34 0 12 -45 49 -73 59 -45 17
-99 13 -147 -11z"/>
<path d="M2530 1855 c0 -30 3 -55 7 -55 3 0 34 11 67 24 34 13 87 30 120 37
l59 13 -23 18 c-18 15 -41 18 -126 18 l-104 0 0 -55z"/>
<path d="M2880 1889 c-22 -8 -25 -15 -25 -61 0 -29 4 -56 10 -60 5 -4 31 -8
58 -8 l47 0 0 60 c0 56 -2 61 -26 70 -29 12 -31 11 -64 -1z"/>
<path d="M2409 1868 l-56 -19 10 -42 c5 -23 11 -47 13 -54 4 -15 84 4 90 22 3
7 4 35 2 62 l-3 50 -56 -19z"/>
<path d="M2720 1841 c-30 -10 -71 -26 -90 -37 -19 -10 -48 -21 -65 -24 -18 -3
-31 -12 -33 -22 -3 -16 7 -18 100 -18 113 0 141 10 159 57 9 25 4 63 -9 62 -4
0 -32 -8 -62 -18z"/>
<path d="M3020 1816 c0 -39 2 -44 20 -39 23 6 24 9 9 52 -16 44 -29 38 -29
-13z"/>
<path d="M3346 1828 c-9 -34 -8 -38 9 -38 10 0 15 10 15 30 0 35 -15 40 -24 8z"/>
<path d="M3905 1830 c3 -5 8 -10 11 -10 2 0 4 5 4 10 0 6 -5 10 -11 10 -5 0
-7 -4 -4 -10z"/>
<path d="M3106 1816 c5 -13 84 -30 94 -20 10 11 -35 34 -67 34 -23 0 -31 -4
-27 -14z"/>
<path d="M3187 1773 c-67 -5 -67 -5 -27 -97 14 -33 25 -46 40 -46 26 0 37 27
22 51 -17 26 -15 31 7 24 15 -4 21 1 30 26 14 41 14 49 -1 47 -7 -1 -39 -3
-71 -5z"/>
<path d="M3301 1708 l-22 -52 25 -24 c17 -17 30 -22 45 -17 19 6 21 14 21 76
0 66 -1 69 -24 69 -19 0 -28 -10 -45 -52z"/>
<path d="M3448 1753 c-14 -3 -18 -15 -18 -54 0 -40 3 -49 18 -49 16 -1 16 -1
0 -11 -31 -17 -22 -61 17 -87 18 -13 39 -21 44 -17 6 3 11 1 11 -4 0 -6 6 -11
14 -11 8 0 16 -7 19 -15 8 -19 87 -59 87 -44 0 6 -19 30 -42 53 -23 22 -41 45
-40 49 1 5 -9 22 -23 39 -14 17 -24 33 -21 35 11 12 42 -20 80 -83 32 -54 49
-71 75 -80 21 -7 29 -13 20 -16 -20 -7 17 -48 44 -48 11 0 45 -11 76 -24 31
-13 75 -29 98 -35 46 -12 173 -94 212 -134 13 -15 30 -23 40 -20 11 3 12 2 4
-4 -21 -15 4 -39 80 -77 l67 -33 6 23 c8 33 -2 67 -30 101 -13 15 -28 44 -35
63 -6 19 -26 58 -44 86 -18 28 -50 79 -72 113 -57 90 -95 133 -114 128 -9 -3
-77 -30 -151 -61 -74 -31 -126 -49 -116 -41 11 8 45 24 75 36 92 34 171 71
171 80 0 14 -82 10 -136 -6 -27 -8 -69 -15 -94 -15 -40 0 -53 7 -112 55 l-68
55 -56 -25 c-32 -14 -59 -23 -61 -21 -2 2 21 14 52 27 69 28 64 37 -45 72 -8
2 -23 3 -32 0z m782 -538 c-14 -8 -32 -14 -40 -14 -9 0 -4 6 10 14 14 8 32 14
40 14 9 0 4 -6 -10 -14z"/>
<path d="M4310 1720 c-8 -5 -43 -19 -77 -31 -35 -11 -63 -25 -63 -30 0 -5 4
-9 10 -9 5 0 22 -24 36 -52 15 -29 45 -79 68 -112 22 -32 55 -84 71 -114 39
-71 51 -78 99 -58 36 15 38 18 32 49 -3 17 -15 43 -26 57 -11 14 -29 42 -40
62 -23 44 -70 81 -123 98 -38 12 -65 44 -47 55 5 3 34 -9 65 -26 31 -17 59
-29 62 -25 8 8 -30 139 -42 143 -6 1 -17 -2 -25 -7z"/>
<path d="M2235 1661 c-52 -19 -144 -56 -183 -75 -22 -10 -22 -11 -6 -23 72
-53 200 -29 237 44 40 78 34 84 -48 54z"/>
<path d="M3256 1594 c-9 -24 -7 -28 9 -14 17 14 20 30 6 30 -5 0 -12 -7 -15
-16z"/>
<path d="M3190 1579 c0 -5 5 -7 10 -4 6 3 10 8 10 11 0 2 -4 4 -10 4 -5 0 -10
-5 -10 -11z"/>
<path d="M4182 1545 c-12 -14 -8 -19 11 -16 4 0 7 -24 7 -54 0 -51 10 -69 25
-45 10 17 24 2 18 -20 -4 -16 17 -75 47 -130 7 -13 55 -18 67 -7 12 13 -137
288 -155 287 -4 -1 -13 -7 -20 -15z"/>
<path d="M3430 1524 c0 -8 5 -12 10 -9 6 4 8 11 5 16 -9 14 -15 11 -15 -7z"/>
<path d="M3660 1430 c0 -5 5 -10 10 -10 6 0 10 5 10 10 0 6 -4 10 -10 10 -5 0
-10 -4 -10 -10z"/>
<path d="M4443 1295 c-25 -17 -22 -38 27 -183 16 -49 30 -102 30 -116 0 -19 8
-30 33 -42 17 -9 51 -37 74 -62 l42 -47 0 35 c1 19 -6 60 -14 90 -8 30 -18 84
-21 120 -5 56 -13 76 -56 143 -54 82 -72 92 -115 62z"/>
<path d="M4345 1048 c9 -43 13 -48 29 -42 15 6 9 55 -8 66 -22 15 -27 8 -21
-24z"/>
<path d="M1471 1796 l-143 -53 34 -21 c37 -23 58 -58 58 -96 0 -24 1 -23 105
22 l105 46 0 78 c0 43 -3 78 -7 77 -5 0 -73 -25 -152 -53z"/>
<path d="M2094 1245 c-4 -11 -24 -63 -45 -115 l-37 -95 44 -3 c24 -2 63 -2 87
0 l44 3 -43 115 c-33 89 -44 110 -50 95z"/>
</g>
</svg>
